<?xml version="1.0" encoding="UTF-8"?>
<svg width="129px" height="217px" viewBox="0 0 129 217" version="1.1" xmlns="http://www.w3.org/2000/svg" xmlns:xlink="http://www.w3.org/1999/xlink">
    <!-- Generator: Sketch 50.2 (55047) - http://www.bohemiancoding.com/sketch -->
    <title>source</title>
    <desc>Created with Sketch.</desc>
    <defs></defs>
    <g id="Page-1" stroke="none" stroke-width="1" fill="none" fill-rule="evenodd">
        <g id="A5" transform="translate(-225.000000, -38.000000)" fill="#FFFFFF" fill-rule="nonzero">
            <g id="source" transform="translate(225.000000, 38.000000)">
                <path d="M128.998499,57.072117 C128.972206,43.0127996 117.522256,31.6219843 103.38995,31.5958274 C89.3107836,31.7438507 77.9355697,43.0655964 77.7933462,57.072117 C77.7933462,67.0653817 83.6221576,75.4544957 91.7203833,79.9698828 C87.8384905,98.3403789 72.6095262,106.729493 51.2053662,116.401927 C46.0215462,118.659621 40.8377262,121.238145 35.9764019,123.816668 L35.9764019,48.683003 C45.1672349,44.563593 51.112188,35.5043542 51.2053662,25.4762896 C51.1790959,11.4215991 39.7364029,0.0326915179 25.6087619,0 C11.4764562,0.0261569374 0.0265060847,11.4169722 0.00021335472,25.4762896 C-0.0411928129,35.544377 5.94736701,44.670066 15.2291776,48.683003 L15.2291776,162.839119 L15.2291776,143.482368 L15.2291776,168.316997 C6.03444584,172.438205 0.0887519745,181.503212 0.00021335472,191.535593 C0.00021335472,205.723415 11.6697805,217 25.6087619,217 C39.7317524,216.967333 51.1725295,205.585643 51.2053662,191.535593 C51.2515571,181.463197 45.2622126,172.331639 35.9764019,168.316997 L35.9764019,153.154802 C35.9764019,146.714434 45.0540591,142.199047 59.9605276,135.425966 C80.7077519,126.074362 107.928779,113.502574 113.112599,80.9323732 C122.817989,76.9635811 129.111654,67.5106405 128.998499,57.072117 Z M25.6087619,12.8926186 C32.5872166,12.9057144 38.2392452,18.5338668 38.2458162,25.4762896 C38.2326705,32.4140723 32.5825619,38.0350001 25.6087619,38.048078 C18.6302979,38.0415409 12.9729272,32.4187031 12.9597634,25.4762896 C12.9597634,18.7032088 18.4780234,12.8926186 25.6087619,12.8926186 Z M25.6087619,204.107381 C18.6302979,204.100844 12.9729272,198.478007 12.9597634,191.535593 C12.9663481,184.588539 18.6256422,178.958473 25.6087619,178.951922 C32.5872166,178.965018 38.2392452,184.59317 38.2458162,191.535593 C38.2326705,198.473376 32.5825619,204.094304 25.6087619,204.107381 Z M103.38995,69.9647355 C96.4161505,69.9516577 90.7660419,64.3307299 90.7528962,57.3929471 C90.7660419,50.4551643 96.4161505,44.8342365 103.38995,44.8211587 C110.198193,44.8211587 116.038949,50.6198664 116.038949,57.3929471 C116.025785,64.3353606 110.368415,69.9581984 103.38995,69.9647355 Z" id="Shape"></path>
            </g>
        </g>
    </g>
</svg>