<svg width="146" height="166" xmlns="http://www.w3.org/2000/svg"><g fill-rule="nonzero" fill="none"><path fill="#264DE4" d="M146 0l-13.301 149.383L72.911 166l-59.624-16.594L0 0z"/><path fill="#2965F1" d="M121.572 140.58L133 13H73v141z"/><path d="M30.304 67.815l1.644 18.188H73V67.815H30.304zM73 31H27l1.668 18.189H73V31zm0 102.977v-18.924l-.08.021-20.431-5.47-1.306-14.506H32.768l2.57 28.559L72.916 134l.084-.023z" fill="#EBEBEB"/><path fill="#FFF" d="M95.612 86.008l-2.131 23.591L73 115.075V134l37.645-10.335.277-3.073 4.315-47.89.448-4.884L119 31H73v18.19h25.876l-1.671 18.628H73v18.19z"/></g></svg>
