<svg width="215" height="215" xmlns="http://www.w3.org/2000/svg"><path d="M107.5 173.471V215c70.389 0 125.195-68 102.17-141.76-10.063-32.234-35.676-57.847-67.909-67.91C68.001-17.694 0 37.113 0 107.502h41.624c.017-44.186 43.732-78.337 90.176-61.484 17.206 6.244 30.93 19.965 37.178 37.17 16.855 46.416-17.247 90.116-61.382 90.178v-41.394l-41.504-.003c-.002 0-.004 13.834-.006 41.503H107.5zm-41.423 31.895H34.194l-.006-.008V173.47h31.898v31.889s-.004.006-.009.006zM34.21 173.471H7.482a.035.035 0 0 1-.02-.006v-26.716s.008-.02.02-.02h26.707c.012 0 .02.008.02.008v26.734z" fill="#0080FF" fill-rule="nonzero"/></svg>
