<svg width="282" height="160" xmlns="http://www.w3.org/2000/svg" xmlns:xlink="http://www.w3.org/1999/xlink"><defs><path d="M45.386 0v50.633H21.033V75.95H.642c-.085.733-.155 1.467-.227 2.201-1.274 13.793 1.147 26.514 6.712 37.39l1.866 3.337c1.12 2 2.425 3.878 3.806 5.71 1.377 1.83 1.865 2.842 2.732 4.059C30.243 145.087 52.17 153 77.488 153c56.067 0 103.65-24.698 124.708-80.18 14.94 1.524 29.273-2.286 35.804-14.964-10.404-5.97-23.776-4.056-31.48-.206L226.93 0l-79.702 50.633h-25.46V0H45.385z" id="a"/><path d="M45.386 0v50.633H21.033V75.95H.642c-.085.733-.155 1.467-.227 2.201-1.274 13.793 1.147 26.514 6.712 37.39l1.866 3.337c1.12 2 2.425 3.878 3.806 5.71 1.377 1.83 1.865 2.842 2.732 4.059C30.243 145.087 52.17 153 77.488 153c56.067 0 103.65-24.698 124.708-80.18 14.94 1.524 29.273-2.286 35.804-14.964-10.404-5.97-23.776-4.056-31.48-.206L226.93 0l-79.702 50.633h-25.46V0H45.385z" id="c"/><path d="M45.386 0v50.633H21.033V75.95H.642c-.085.733-.155 1.467-.227 2.201-1.274 13.793 1.147 26.514 6.712 37.39l1.866 3.337c1.12 2 2.425 3.878 3.806 5.71 1.377 1.83 1.865 2.842 2.732 4.059C30.243 145.087 52.17 153 77.488 153c56.067 0 103.65-24.698 124.708-80.18 14.94 1.524 29.273-2.286 35.804-14.964-10.404-5.97-23.776-4.056-31.48-.206L226.93 0l-79.702 50.633h-25.46V0H45.385z" id="e"/><path d="M45.386 0v50.633H21.033V75.95H.642c-.085.733-.155 1.467-.227 2.201-1.274 13.793 1.147 26.514 6.712 37.39l1.866 3.337c1.12 2 2.425 3.878 3.806 5.71 1.377 1.83 1.865 2.842 2.732 4.059C30.243 145.087 52.17 153 77.488 153c56.067 0 103.65-24.698 124.708-80.18 14.94 1.524 29.273-2.286 35.804-14.964-10.404-5.97-23.776-4.056-31.48-.206L226.93 0l-79.702 50.633h-25.46V0H45.385z" id="g"/><path d="M45.386 0v50.633H21.033V75.95H.642c-.085.733-.155 1.467-.227 2.201-1.274 13.793 1.147 26.514 6.712 37.39l1.866 3.337c1.12 2 2.425 3.878 3.806 5.71 1.377 1.83 1.865 2.842 2.732 4.059C30.243 145.087 52.17 153 77.488 153c56.067 0 103.65-24.698 124.708-80.18 14.94 1.524 29.273-2.286 35.804-14.964-10.404-5.97-23.776-4.056-31.48-.206L226.93 0l-79.702 50.633h-25.46V0H45.385z" id="i"/></defs><g fill="none" fill-rule="evenodd"><path d="M163.282 50.526h25.235V76.35h12.76c5.893 0 11.953-1.05 17.533-2.945 2.742-.93 5.82-2.225 8.524-3.854-3.563-4.656-5.381-10.536-5.915-16.33-.729-7.882.86-18.142 6.189-24.311l2.653-3.071 3.16 2.543c7.959 6.401 14.652 15.346 15.832 25.541 9.583-2.822 20.834-2.154 29.282 2.727l3.465 2-1.824 3.565c-7.144 13.958-22.08 18.281-36.68 17.516C221.647 134.209 174.08 160 116.405 160c-29.798 0-57.135-11.15-72.703-37.616-.912-1.644-1.694-3.363-2.522-5.051-5.263-11.65-7.01-24.411-5.825-37.163l.356-3.82h21.58V50.527h25.236V25.263h50.471V0h30.284v50.526" fill="#394D54" fill-rule="nonzero"/><g transform="translate(39 2)"><mask id="b" fill="#fff"><use xlink:href="#a"/></mask><g mask="url(#b)"><g fill-rule="nonzero"><path fill="#00ACD3" d="M98.365-23.176h21.938v21.813H98.365z"/><path fill="#20C2EF" d="M98.365 1.992h21.938v21.815H98.365z"/><path d="M101.058 21.99V3.807m3.29 18.18V3.808m3.323 18.18V3.808m3.324 18.18V3.808m3.325 18.18V3.808m3.29 18.18V3.808" fill="#000" stroke="#394D54" stroke-width="1.56"/><g><path fill="#00ACD3" d="M123.677 23.806h21.938V1.993h-21.938z"/><path fill="#20C2EF" d="M123.677-1.362h21.938v-21.815h-21.938z"/><path d="M126.37 3.81v18.181m3.29-18.18v18.18m3.323-18.18v18.18m3.325-18.18v18.18m3.324-18.18v18.18m3.29-18.18v18.18" stroke="#394D54" stroke-width="1.56" fill="#000"/></g></g><g fill-rule="nonzero"><path fill="#00ACD3" d="M-2.884 27.162h21.938v21.813H-2.884z"/><path fill="#20C2EF" d="M-2.884 52.33h21.938v21.816H-2.884z"/><path d="M-.19 47.158v-18.18M3.1 47.157v-18.18m3.323 18.18v-18.18m3.324 18.18v-18.18m3.324 18.18v-18.18m3.29 18.18v-18.18M-.19 72.327v-18.18m3.29 18.18v-18.18m3.323 18.18v-18.18m3.324 18.18v-18.18m3.324 18.18v-18.18m3.29 18.18v-18.18" stroke="#394D54" stroke-width="1.56" fill="#000"/><g><path fill="#00ACD3" d="M22.428 74.144h21.939V52.332H22.428z"/><path fill="#20C2EF" d="M22.428 48.977h21.939V27.16H22.428z"/><path d="M25.122 54.149v18.18m3.29-18.18v18.18m3.323-18.18v18.18m3.324-18.18v18.18m3.324-18.18v18.18m3.29-18.18v18.18M25.122 28.98v18.18m3.29-18.18v18.18m3.323-18.18v18.18m3.324-18.18v18.18m3.324-18.18v18.18m3.29-18.18v18.18" stroke="#394D54" stroke-width="1.56" fill="#000"/></g></g><g fill-rule="nonzero"><path fill="#00ACD3" d="M47.74 27.162H69.68v21.813H47.74z"/><path fill="#20C2EF" d="M47.74 52.33H69.68v21.816H47.74z"/><path d="M50.434 47.158v-18.18m3.29 18.179v-18.18m3.323 18.18v-18.18m3.324 18.18v-18.18m3.324 18.18v-18.18m3.29 18.18v-18.18M50.434 72.327v-18.18m3.29 18.18v-18.18m3.323 18.18v-18.18m3.324 18.18v-18.18m3.324 18.18v-18.18m3.29 18.18v-18.18" stroke="#394D54" stroke-width="1.56" fill="#000"/><g><path fill="#00ACD3" d="M73.053 74.144H94.99V52.332H73.053z"/><path fill="#20C2EF" d="M73.053 48.977H94.99V27.16H73.053z"/><path d="M75.746 54.149v18.18m3.29-18.18v18.18m3.323-18.18v18.18m3.324-18.18v18.18m3.325-18.18v18.18m3.29-18.18v18.18M75.746 28.98v18.18m3.29-18.18v18.18m3.323-18.18v18.18m3.324-18.18v18.18m3.325-18.18v18.18m3.29-18.18v18.18" stroke="#394D54" stroke-width="1.56" fill="#000"/></g></g><g fill-rule="nonzero"><path fill="#00ACD3" d="M98.365 27.162h21.938v21.813H98.365z"/><path fill="#20C2EF" d="M98.365 52.33h21.938v21.816H98.365z"/><path d="M101.058 47.158v-18.18m3.29 18.179v-18.18m3.323 18.18v-18.18m3.324 18.18v-18.18m3.325 18.18v-18.18m3.29 18.18v-18.18M101.058 72.327v-18.18m3.29 18.18v-18.18m3.323 18.18v-18.18m3.324 18.18v-18.18m3.325 18.18v-18.18m3.29 18.18v-18.18" stroke="#394D54" stroke-width="1.56" fill="#000"/><g><path fill="#00ACD3" d="M123.677 74.144h21.938V52.332h-21.938z"/><path fill="#20C2EF" d="M123.677 48.977h21.938V27.16h-21.938z"/><path d="M126.37 54.149v18.18m3.29-18.18v18.18m3.323-18.18v18.18m3.325-18.18v18.18m3.324-18.18v18.18m3.29-18.18v18.18M126.37 28.98v18.18m3.29-18.18v18.18m3.323-18.18v18.18m3.325-18.18v18.18m3.324-18.18v18.18m3.29-18.18v18.18" stroke="#394D54" stroke-width="1.56" fill="#000"/></g></g></g></g><g transform="translate(39 2)"><mask id="d" fill="#fff"><use xlink:href="#c"/></mask><path d="M206.529 57.656c1.697-13.116-8.174-23.418-14.296-28.31-7.055 8.11-8.15 29.365 2.917 38.314-6.177 5.455-19.192 10.4-32.519 10.4H-1.107c-1.295 13.832 0 80.444 0 80.444h240.214L238.014 57.87c-10.403-5.97-23.782-4.066-31.485-.216" fill="#17B5EB" fill-rule="nonzero" mask="url(#d)"/></g><g transform="translate(39 2)"><mask id="f" fill="#fff"><use xlink:href="#e"/></mask><path fill-opacity=".17" fill="#000" fill-rule="nonzero" mask="url(#f)" d="M-1.107 95.763v62.74h240.214v-62.74"/></g><g transform="translate(39 2)"><mask id="h" fill="#fff"><use xlink:href="#g"/></mask><path d="M84.393 152.879c-14.989-7.072-23.215-16.687-27.792-27.181l-45.531 1.985 23.246 30.82 50.077-5.624" fill="#D4EDF1" fill-rule="nonzero" mask="url(#h)"/></g><g transform="translate(39 2)"><mask id="j" fill="#fff"><use xlink:href="#i"/></mask><path d="M207.558 57.17v.032c-23.093 29.599-56.215 55.454-91.775 69.037-31.72 12.116-59.377 12.174-78.457 2.442-2.054-1.154-4.07-2.434-6.088-3.646-13.99-9.721-21.869-25.803-21.207-46.987H-1.107v80.456h240.214V52.834h-27.674l-3.875 4.335z" fill-opacity=".085" fill="#000" fill-rule="nonzero" mask="url(#j)"/></g><path d="M50 129.529c15.676.85 32.406 1.002 47-3.529" stroke="#394D54" stroke-width="3.4" stroke-linecap="round"/><path d="M113 117.92a6 6 0 1 1-11.999.163 6 6 0 0 1 11.998-.164z" fill="#D4EDF1" fill-rule="nonzero"/><path d="M108.412 114.534a1.798 1.798 0 0 0-.82 2.01 1.77 1.77 0 0 0 1.701 1.325 1.76 1.76 0 0 0 1.55-.93c.786 1.923.13 4.141-1.572 5.308a4.284 4.284 0 0 1-5.448-.495 4.425 4.425 0 0 1-.613-5.506 4.296 4.296 0 0 1 5.202-1.713zM0 99.82h281c-6.118-1.572-19.357-3.696-17.174-11.82-11.126 13.042-37.956 9.15-44.728 2.72-7.54 11.079-51.436 6.867-54.498-1.764-9.453 11.239-38.745 11.239-48.198 0-3.064 8.63-46.96 12.843-54.5 1.763-6.77 6.431-33.6 10.323-44.726-2.718C19.36 96.124 6.12 98.248 0 99.821v-.001z" fill="#394D54" fill-rule="nonzero"/></g></svg>
