
<svg width="347px" height="101px" viewBox="0 0 347 101" version="1.1" xmlns="http://www.w3.org/2000/svg" xmlns:xlink="http://www.w3.org/1999/xlink">
    <!-- Generator: Sketch 49.3 (51167) - http://www.bohemiancoding.com/sketch -->
    <desc>Created with Sketch.</desc>
    <defs></defs>
    <g id="Page-1" stroke="none" stroke-width="1" fill="none" fill-rule="evenodd">
        <g id="A5" transform="translate(-107.000000, -95.000000)" fill="#222222" fill-rule="nonzero">
            <g id="image-21" transform="translate(107.000000, 95.000000)">
                <path d="M2.25821094,78.7573187 L2.25821094,39.9463735 L50.4749453,39.9463735 L50.4749453,37.6761979 L2.25821094,37.6761979 L2.25821094,2.26949455 L53.5233945,2.26949455 L53.5233945,0 L0,0 L0,81.0268132 L53.9747656,81.0268132 L53.9747656,78.7573187 L2.25888867,78.7573187 L2.25821094,78.7573187 Z M97.4493926,22.6963078 L77.4630059,49.1380989 L57.9273125,22.6969889 L54.9913672,22.6969889 L76.1075371,50.840901 L52.9581641,81.0261321 L55.6684238,81.0261321 L77.4616504,52.5416596 L99.3680586,81.0261321 L102.190822,81.0261321 L78.929623,50.8395387 L100.158297,22.6956267 L97.4487148,22.6956267 L97.4493926,22.6963078 Z M108.966811,101 L108.966811,64.6860438 L109.192496,64.6860438 C110.547965,69.9817581 113.220271,74.237401 117.210094,77.4529723 C121.199916,80.6678626 126.280891,82.2759888 132.453695,82.2759888 C136.443518,82.2759888 139.981969,81.4627306 143.068371,79.836214 C146.154773,78.2096975 148.732875,75.996736 150.803354,73.1973295 C152.873154,70.3979229 154.454309,67.1448899 155.546139,63.4375493 C156.637291,59.7308898 157.183545,55.8341977 157.183545,51.7495161 C157.183545,47.3610547 156.618314,43.3131537 155.489209,39.6064943 C154.360104,35.8991537 152.722697,32.6835823 150.577668,29.9604613 C148.431961,27.2366591 145.834883,25.1176923 142.785756,23.6056041 C139.737307,22.0921536 136.293061,21.3354284 132.453695,21.3354284 C129.51775,21.3354284 126.789191,21.7706646 124.267342,22.6404559 C121.745492,23.5109283 119.506258,24.7396702 117.548961,26.3287251 C115.580201,27.92999 113.86653,29.824263 112.467309,31.9459284 C111.037289,34.1023569 109.945459,36.4665273 109.192496,39.0391206 L108.966811,39.0391206 L108.966811,22.6963078 L106.7086,22.6963078 L106.7086,101 L108.966811,101 Z M132.453695,80.1188792 C125.378148,80.1188792 119.69399,77.6791044 115.403254,72.7995549 C111.112518,67.9200054 108.966811,60.9024176 108.966811,51.7481539 C108.966811,47.9652089 109.494088,44.3716155 110.547965,40.9673736 C111.601842,37.5631318 113.126066,34.5743737 115.120639,32.0024615 C117.115889,29.4298682 119.581486,27.3871868 122.516754,25.8744175 C125.452699,24.3609671 128.765465,23.6042418 132.453695,23.6042418 C136.217832,23.6042418 139.511621,24.3609671 142.334385,25.8744175 C145.157148,27.3871868 147.491266,29.4489395 149.335381,32.0589945 C151.179496,34.6690495 152.57224,37.6578076 153.513613,41.0239067 C154.454309,44.3906869 154.924656,47.9652089 154.924656,51.7481539 C154.924656,55.1530768 154.492262,58.5389284 153.626117,61.9050275 C152.76065,65.2718077 151.424158,68.2980274 149.617318,70.9843679 C147.811156,73.6693462 145.496693,75.8632363 142.673252,77.5660384 C139.849811,79.2681593 136.443518,80.1188792 132.453695,80.1188792 Z M169.604383,81.0268132 L169.604383,48.0033517 C169.604383,44.8259231 170.055754,41.7234177 170.959852,38.6978791 C171.862594,35.6716593 173.255338,33.0043902 175.137406,30.697434 C177.019475,28.3897967 179.409166,26.5739286 182.307836,25.2498297 C185.205828,23.9257309 188.650074,23.3774286 192.639896,23.6042418 L192.639896,21.3347473 C189.176674,21.259824 186.147201,21.6371649 183.550123,22.4694946 C180.952367,23.3018242 178.713133,24.4365715 176.831064,25.8744175 C174.948996,27.3115824 173.443748,28.994632 172.314643,30.9242472 C171.186385,32.850798 170.349061,34.935057 169.830068,37.1088242 L169.604383,37.1088242 L169.604383,22.6963078 L167.346172,22.6963078 L167.346172,81.0274944 L169.604383,81.0274944 L169.604383,81.0268132 Z M195.46266,52.3155275 L244.017584,52.3155275 C244.168719,48.3057693 243.7736,44.447901 242.832227,40.7405604 C241.891531,37.0332198 240.385605,33.742044 238.315805,30.8677142 C236.245326,27.9927032 233.57302,25.6850659 230.298207,23.9448022 C227.023395,22.2045386 223.127777,21.3347473 218.611355,21.3347473 C215.373818,21.3347473 212.212188,22.0158681 209.125785,23.3781097 C206.039383,24.7396702 203.329123,26.7251374 200.995684,29.3351924 C198.662244,31.9452473 196.780176,35.1417473 195.350156,38.9253734 C193.920137,42.7076373 193.204449,47.0198132 193.204449,51.8619011 C193.204449,56.1740769 193.693773,60.2029066 194.672422,63.9477088 C195.65107,67.692511 197.156318,70.9462252 199.188844,73.707489 C201.222047,76.4687527 203.838102,78.6061099 207.037008,80.1188792 C210.235914,81.6323296 214.094256,82.3509121 218.611355,82.2753077 C225.235531,82.2753077 230.806508,80.4022254 235.32293,76.6581043 C239.840029,72.912621 242.512336,67.635978 243.340527,60.8268132 L241.082316,60.8268132 C240.103668,67.257956 237.600117,72.0809725 233.57302,75.2958627 C229.545244,78.5114341 224.483246,80.1188792 218.384992,80.1188792 C214.244713,80.1188792 210.744215,79.4002967 207.883498,77.9631318 C205.023459,76.5259669 202.689342,74.5582089 200.882502,72.0619011 C199.07634,69.5649122 197.739848,66.6333682 196.874381,63.266588 C196.008236,59.9004889 195.537889,56.2496814 195.46266,52.3155275 Z M241.759373,50.046033 L195.463338,50.046033 C195.688346,45.9606703 196.441309,42.2914725 197.720871,39.0384395 C199.001111,35.7847254 200.675793,33.0043902 202.746271,30.697434 C204.816072,28.3897967 207.225418,26.6311427 209.972953,25.4201099 C212.720488,24.2097582 215.67541,23.6042418 218.837041,23.6042418 C222.601178,23.6042418 225.912588,24.304434 228.773982,25.7041373 C231.634021,27.1038406 234.024391,29.0143845 235.944412,31.4350878 C237.863756,33.8557912 239.312752,36.6742691 240.2914,39.8891594 C241.270049,43.1047308 241.759373,46.4905823 241.759373,50.046033 Z M290.879527,39.9463735 L293.137738,39.9463735 C293.137738,33.4396264 291.25567,28.7112857 287.492211,25.7606703 C283.727396,22.810055 278.608469,21.3347473 272.13475,21.3347473 C268.52107,21.3347473 265.472621,21.7890549 262.988047,22.6969889 C260.50415,23.6042418 258.471625,24.7771319 256.890471,26.2142968 C255.309994,27.6514617 254.180889,29.2405166 253.503154,30.9807803 C252.82542,32.7210439 252.486553,34.3857032 252.486553,35.9740769 C252.486553,39.1515055 253.051105,41.6859561 254.180889,43.5774286 C255.309994,45.4689011 257.078881,46.9442088 259.487549,48.0033517 C261.143932,48.7593958 263.025322,49.4405166 265.133754,50.0467141 C267.241508,50.6515494 269.688129,51.2945274 272.473617,51.9749671 C274.957514,52.5811646 277.404135,53.1859999 279.81348,53.7908352 C282.222148,54.3963516 284.348879,55.2096099 286.192994,56.23061 C288.037787,57.2522912 289.543035,58.5573187 290.710094,60.1463735 C291.876475,61.7347473 292.460004,63.8155714 292.460004,66.3874836 C292.460004,68.8844725 291.877152,71.0027582 290.710094,72.7423408 C289.552963,74.4735319 288.030048,75.9268442 286.249924,76.9986647 C284.443084,78.0952692 282.428857,78.8894561 280.2086,79.3812253 C277.987664,79.8729946 275.823658,80.1188792 273.715904,80.1188792 C266.865365,80.1188792 261.614279,78.5870385 257.963324,75.523357 C254.312369,72.4589945 252.48723,67.635978 252.48723,61.0536265 L250.228342,61.0536265 C250.228342,68.3927032 252.204615,73.764022 256.156484,77.1689449 C260.109031,80.5731868 265.961945,82.2753077 273.715904,82.2753077 C276.199801,82.2753077 278.702674,81.9912803 281.225201,81.4239067 C283.746373,80.856533 286.005262,79.9302087 287.999834,78.6435715 C289.97748,77.375173 291.638656,75.667013 292.855123,73.6509559 C294.09741,71.6075935 294.718893,69.1112857 294.718893,66.1606703 C294.718893,63.3612638 294.172639,61.0917692 293.081486,59.3515055 C291.989656,57.611923 290.559637,56.1740769 288.790072,55.0393297 C287.021186,53.9045824 285.026613,53.0157197 282.805678,52.3727417 C280.57224,51.7259596 278.332442,51.1015679 276.086619,50.4996594 C273.322736,49.770896 270.556205,49.0523087 267.787084,48.3439121 C265.416369,47.7383957 263.21441,47.0198132 261.181885,46.1874836 C259.224588,45.3551539 257.66241,44.1638736 256.495352,42.6129615 C255.328293,41.0620494 254.745441,38.8490879 254.745441,35.9740769 C254.745441,35.4448461 254.895898,34.4987693 255.196813,33.1372088 C255.497727,31.7749671 256.213414,30.3943352 257.34252,28.994632 C258.471625,27.5956098 260.202559,26.3471154 262.536676,25.2498297 C264.870115,24.1532252 268.069699,23.6042418 272.13475,23.6042418 C274.920238,23.6042418 277.460387,23.9073406 279.756551,24.5121759 C282.052715,25.1176923 284.028988,26.0821594 285.684693,27.4062582 C287.341076,28.7303571 288.620639,30.4134066 289.524059,32.4560879 C290.427479,34.4994504 290.879527,36.9957582 290.879527,39.9463735 Z M343.160635,39.9463735 L345.418846,39.9463735 C345.418846,33.4396264 343.537455,28.7112857 339.773318,25.7606703 C336.009182,22.810055 330.890254,21.3347473 324.415857,21.3347473 C320.802855,21.3347473 317.753729,21.7890549 315.269832,22.6969889 C312.785258,23.6042418 310.752732,24.7771319 309.172256,26.2142968 C307.591102,27.6514617 306.461996,29.2405166 305.784262,30.9807803 C305.106527,32.7210439 304.768338,34.3857032 304.768338,35.9740769 C304.768338,39.1515055 305.332891,41.6859561 306.462674,43.5774286 C307.591102,45.4689011 309.360666,46.9442088 311.769334,48.0033517 C313.425717,48.7593958 315.307107,49.4405166 317.414861,50.0467141 C319.522615,50.6515494 321.969236,51.2945274 324.754725,51.9749671 C327.239299,52.5811646 329.68592,53.1859999 332.094588,53.7908352 C334.503934,54.3963516 336.629986,55.2096099 338.474779,56.23061 C340.318895,57.2522912 341.82482,58.5573187 342.991201,60.1463735 C344.15826,61.7347473 344.741789,63.8155714 344.741789,66.3874836 C344.741789,68.8844725 344.15826,71.0027582 342.991201,72.7423408 C341.834265,74.4734576 340.311587,75.9267643 338.531709,76.9986647 C336.724191,78.0952692 334.710643,78.8894561 332.489707,79.3812253 C330.269449,79.8729946 328.104766,80.1188792 325.997012,80.1188792 C319.146473,80.1188792 313.896064,78.5870385 310.245109,75.523357 C306.593477,72.4589945 304.768338,67.635978 304.768338,61.0536265 L302.510127,61.0536265 C302.510127,68.3927032 304.485723,73.764022 308.43827,77.1689449 C312.390139,80.5731868 318.243053,82.2753077 325.997012,82.2753077 C328.481586,82.2753077 330.984459,81.9912803 333.506309,81.4239067 C336.02748,80.856533 338.286369,79.9302087 340.281619,78.6435715 C342.259266,77.375173 343.920441,75.667013 345.136908,73.6509559 C346.379195,71.6075935 347,69.1112857 347,66.1606703 C347,63.3612638 346.454424,61.0917692 345.362594,59.3515055 C344.271441,57.611923 342.841422,56.1740769 341.071857,55.0393297 C339.302971,53.9045824 337.307721,53.0157197 335.087463,52.3727417 C332.854025,51.7259593 330.614228,51.1015675 328.368404,50.4996594 C325.604521,49.7708958 322.83799,49.0523086 320.068869,48.3439121 C317.697477,47.7383957 315.495518,47.0198132 313.462992,46.1874836 C311.505695,45.3551539 309.943518,44.1638736 308.777137,42.6129615 C307.610078,41.0620494 307.026549,38.8490879 307.026549,35.9740769 C307.026549,35.4448461 307.177006,34.4987693 307.478598,33.1372088 C307.779512,31.7749671 308.495199,30.3943352 309.623627,28.994632 C310.752732,27.5956098 312.484344,26.3471154 314.817783,25.2498297 C317.1519,24.1532252 320.350807,23.6042418 324.416535,23.6042418 C327.202023,23.6042418 329.742172,23.9073406 332.038336,24.5121759 C334.3345,25.1176923 336.310096,26.0821594 337.966479,27.4062582 C339.622861,28.7303571 340.902424,30.4134066 341.805844,32.4560879 C342.709264,34.4994504 343.161313,36.9957582 343.161313,39.9463735 L343.160635,39.9463735 Z" id="Shape"></path>
            </g>
        </g>
    </g>
</svg>
