<svg width="172" height="236" xmlns="http://www.w3.org/2000/svg"><g fill="none" fill-rule="evenodd"><path d="M0 190l1.426-1.995L68.858 60.097 69 58.743 39.275 2.926c-2.491-4.676-9.503-3.493-10.32 1.74L0 190z" fill="#FFC24A" fill-rule="nonzero"/><path d="M1.171 188.82l1.086-2.102L69.467 60.14 39.6 4.094C37.118-.533 30.815.647 30 5.826L1.171 188.82z" fill="#FFA712"/><path d="M1 189l1.081-2.107L69 60.06 39.263 3.897C36.792-.739 30.516.443 29.705 5.633L1 189z" fill="#F9A311" fill-rule="nonzero"/><path d="M90.876 101L113 78.312 90.87 36.008c-2.102-4.005-7.967-4.017-10.046 0L69 58.586v1.923L90.875 101z" fill="#F4BD62" fill-rule="nonzero"/><path d="M90.944 100.982l21.688-22.206L90.944 37.49c-2.06-3.92-7.063-4.33-9.1-.4L69.859 60.173l-.359 1.18 21.444 39.63z" fill="#FFA50E"/><path d="M90.378 100L112 78.009 90.378 37.12c-2.053-3.882-7.04-4.288-9.072-.396l-11.948 22.86-.358 1.17L90.378 100z" fill="#F9A311" fill-rule="nonzero"/><path fill="#F6820C" fill-rule="nonzero" d="M0 191l.643-.652 2.339-.957 85.93-86.251L90 100.154 68.564 59z"/><path d="M93.693 233.941L172 190.258 149.638 52.5c-.7-4.31-5.985-6.013-9.07-2.923L0 190.456l77.858 43.482a16.244 16.244 0 0 0 15.835.003" fill="#FDE068" fill-rule="nonzero"/><path d="M171 189.759L148.862 53.508c-.692-4.263-5.077-6.027-8.13-2.97L1 190.054l76.809 42.906a16.092 16.092 0 0 0 15.675.004L171 189.758z" fill="#FCCA3F" fill-rule="nonzero"/><path d="M93.692 232.649a16.22 16.22 0 0 1-15.835-.004L.627 189.717l-.627.664 77.857 43.554a16.22 16.22 0 0 0 15.836.003L172 190.182l-.192-1.182-78.115 43.65-.001-.001z" fill="#EEAB37" fill-rule="nonzero"/></g></svg>
