<svg width="150" height="205" xmlns="http://www.w3.org/2000/svg"><g fill="none" fill-rule="evenodd"><path d="M2.381 111.385c.285 5.941 6.16 3.192 8.82 1.335 2.526-1.763 3.265-.298 3.487-3.777.145-2.288.406-4.575.277-6.871-3.819-.35-7.973.57-11.104 2.867-1.613 1.184-4.637 4.963-1.48 6.446" stroke="#000" stroke-width="1.2" fill="#F6D2A2" stroke-linecap="round"/><path d="M3 112c1.096-.483 2.257-.826 3-2" stroke="#000" stroke-width="1.2" fill="#C6B198" stroke-linecap="round"/><path d="M16.018 39c-22.88-6.442-5.866-35.586 12.507-23.599L16.018 39zm101.656-25.786c18.11-12.736 34.476 16 13.428 23.23l-13.428-23.23z" stroke="#000" stroke-width="1.2" fill="#6AD7E5" stroke-linecap="round"/><path d="M122.172 185c4.654 2.804 13.161 11.284 6.18 15.396-6.71 5.981-10.464-6.566-16.352-8.304 2.536-3.354 5.75-6.412 10.172-7.092z" stroke="#000" stroke-width="1.2" fill="#F6D2A2" stroke-linecap="round"/><path d="M129 201c-.998-2.018-1.333-4.373-3-6" stroke="#000" stroke-width="1.2" stroke-linecap="round"/><path d="M39 194.977c-5.183.827-8.1 5.65-12.422 8.099-4.072 2.504-5.63-.802-5.996-1.473-.638-.3-.585.28-1.57-.743-3.774-6.145 3.933-10.636 7.947-13.688 5.59-1.166 9.093 3.833 12.041 7.805z" stroke="#000" stroke-width="1.2" fill="#F6D2A2" stroke-linecap="round"/><path d="M21 201c.207-2.386 2.099-3.983 3-6" stroke="#000" stroke-width="1.2" stroke-linecap="round"/><path d="M18.044 31c-3.006-1.626-5.211-3.835-3.372-7.392 1.702-3.292 4.865-2.934 7.871-1.308L18.044 31zm108.912-3.092c3.006-1.627 5.211-3.835 3.372-7.392-1.702-3.292-4.865-2.935-7.871-1.308l4.499 8.7z" fill="#000" fill-rule="nonzero"/><path d="M147.619 110.385c-.285 5.941-6.16 3.192-8.82 1.335-2.526-1.763-3.265-.298-3.487-3.777-.145-2.288-.406-4.575-.277-6.871 3.819-.35 7.973.57 11.104 2.867 1.613 1.184 4.637 4.963 1.48 6.446" stroke="#000" stroke-width="1.2" fill="#F6D2A2" stroke-linecap="round"/><path d="M149 111c-1.096-.483-2.257-.826-3-2" stroke="#000" stroke-width="1.2" fill="#C6B198" stroke-linecap="round"/><path d="M73.455 1C96.56 1 118.22 4.306 129.51 26.513c10.135 24.892 6.53 51.734 8.076 78.041 1.328 22.59 4.27 48.686-6.204 69.619-11.02 22.023-38.555 27.563-61.24 26.752-17.82-.638-39.345-6.454-49.402-22.741-11.799-19.108-6.213-47.52-5.356-68.78 1.015-25.185-6.819-50.447 1.452-75.091C25.415 8.748 48.553 2.971 73.456 1" stroke="#000" stroke-width="1.2" fill="#6AD7E5" stroke-linecap="round"/><path d="M77.04 31.97c4.094 23.855 43 17.548 37.412-6.512C109.442 3.883 75.68 9.855 77.04 31.97" stroke="#000" stroke-width="1.163" fill="#FFF" stroke-linecap="round"/><path d="M30.44 35.825c5.348 20.784 38.786 15.463 37.525-5.386-1.51-24.97-42.639-20.151-37.525 5.386" stroke="#000" stroke-width="1.128" fill="#FFF" stroke-linecap="round"/><path d="M83.613 60.368c.019 3.226.77 6.849.129 10.281-.865 1.557-2.56 1.722-4.023 2.351-2.021-.302-3.721-1.567-4.532-3.369-.519-3.918.193-7.711.324-11.631l8.102 2.368z" stroke="#000" stroke-width="1.2" fill="#FFF" stroke-linecap="round"/><g transform="translate(34 26)" fill-rule="nonzero"><ellipse fill="#000" cx="5.932" cy="6.462" rx="5.74" ry="6.327"/><ellipse fill="#FFF" cx="8.543" cy="7.89" rx="1.353" ry="1.608"/></g><g transform="translate(81 24)" fill-rule="nonzero"><ellipse fill="#000" cx="6.027" cy="6.462" rx="5.645" ry="6.327"/><ellipse fill="#FFF" cx="8.595" cy="7.89" rx="1.331" ry="1.608"/></g><path d="M65.742 60.083c-2.435 5.815 1.357 17.442 7.963 8.866-.473-3.688.176-7.26.295-10.949l-8.258 2.083z" stroke="#000" stroke-width="1.2" fill="#FFF" stroke-linecap="round"/><g fill-rule="nonzero"><path d="M66.054 48.399c-4.615.407-8.388 6.088-5.988 10.583 3.178 5.952 10.27-.527 14.688.08 5.085.108 9.25 5.566 13.334.987 4.542-5.094-1.955-10.054-7.033-12.272l-15.001.622z" stroke="#231F20" stroke-width="1.2" fill="#F6D2A2" stroke-linecap="round"/><path d="M65.473 48.15c-.342-8.278 14.902-9.313 16.702-2.384 1.796 6.913-15.952 8.518-16.702 2.384-.6-4.899 0 0 0 0z" fill="#000"/></g></g></svg>
