<svg width="225" height="198" xmlns="http://www.w3.org/2000/svg"><g fill-rule="nonzero" stroke-width=".094" fill="none"><g fill="#0A0203" stroke="#0A0203"><path d="M22.012 2.337C22.95.893 24.716.234 26.354.094c1.374-.166 2.724.294 3.994.776 1.263.646 2.327 1.615 3.468 2.45 1.012.684 1.769 1.687 2.406 2.718.912 2.121 1.493 4.434 1.244 6.76-.394.46-.72.98-1.176 1.377-.779.574-1.675.963-2.568 1.314l2.93 3.229c1.086 1.063 1.691 2.487 2.519 3.741.724-.895 1.885-1.166 2.764-1.86 1.287-.94 2.467-2.058 3.916-2.75.45-.153.94-.08 1.407-.117l.427.303c.045 1.58.847 2.983 1.338 4.447.8 2.528 1.604 5.062 2.656 7.496.274.01.547-.006.822-.015.318-1.598 1.181-2.986 1.934-4.4.755-1.237 1.277-2.617 2.201-3.75 1.152-1.48 2.156-3.107 3.572-4.352l.855.021c.086 1.887-.087 3.792.284 5.66.324 1.425.1 2.898.328 4.331.27 2.067-.169 4.217.49 6.23.964 1.68 2.63 2.778 3.713 4.364 1.645 1.81 3.291 3.622 4.9 5.467.928 1.078 1.596 2.359 2.566 3.404.765.855 1.362 1.85 2.16 2.68.39.396.704.859.99 1.335.474.794 1.22 1.374 1.708 2.16.485.667.911 1.427 1.567 1.933.627-.232 1.166-.757 1.896-.579l.42.463c.43.07 1 0 1.217.48.494.985 1.272 1.806 1.664 2.846.808-.528 1.698-.92 2.515-1.434 1.194-.722 2.616-.498 3.937-.549 1.133-.065 2.232.474 3.359.173 1.23-.324 2.25.78 3.478.629.763-.227 1.436-.671 2.158-.999 1.498-.607 3.033-1.114 4.566-1.62 1.66-.834 3.453-1.315 5.217-1.846 1.813-.276 3.62-.628 5.452-.752.938-.12 1.858-.483 2.816-.302 2.355.321 4.72.668 7.1.636 1.686-.099 3.376.103 5.033.412 1.34.246 2.493 1.026 3.81 1.345 1.162.352 2.219.985 3.382 1.342 2.19.963 3.934 2.712 6.131 3.67 1.426.91 3 1.562 4.385 2.533 1.123.955 2.445 1.662 3.453 2.755.61.614 1.068 1.389 1.803 1.868.644.437 1.398.768 1.81 1.473 1.77 1.174 2.963 2.995 4.428 4.504.721.729 1.227 1.712 2.152 2.21.177-.241.336-.495.496-.748.516-.266 1.035-.551 1.61-.674a24.239 24.239 0 0 1 5.24-.392c1.534-.07 2.922.703 4.424.892 1.264.099 2.348.831 3.553 1.162.707.24 1.49.233 2.172.565.949.451 1.926.833 2.88 1.272 1.377.943 2.693 1.975 4.13 2.827.838.663 1.595 1.434 2.497 2.022.488-.912 1.63-.929 2.458-1.357 1.726-.814 3.481-1.612 5.052-2.71 1.196-.77 2.46-1.43 3.776-1.97 2.853-1.445 5.623-3.097 8.677-4.08.84-.4 1.839-.478 2.547-1.135-.68-1.122-.144-2.388.035-3.568.164-1.141.905-2.082 1.696-2.867 1.544-1.161 3.466-1.728 5.387-1.677 1.742-.167 3.399.777 4.513 2.073a13.292 13.292 0 0 1 1.577 2.927c-.377.884-.503 1.837-.765 2.754-.315 1.07-1.283 1.705-2.02 2.463-1.214.923-2.402 2.006-3.966 2.237-1.304-.236-2.623-.395-3.932-.627-.682.6-1.113 1.45-1.888 1.944-.503.321-.808.855-1.252 1.238-1.205.943-2.337 1.98-3.546 2.913-1.612 1.09-3.293 2.077-4.91 3.155-.972.724-1.842 1.6-2.951 2.123-2.163 1.05-3.826 2.847-5.765 4.233.508 1.104.718 2.308.952 3.495.175 1.543-.22 3.077-.206 4.623-.063.933.1 1.909-.25 2.8-.256.79-.8 1.453-.963 2.277-.31 1.349-.909 2.602-1.318 3.917-.221.762-.73 1.382-1.072 2.089-.641 1.234-1.042 2.591-1.78 3.78-.329.565-.744 1.074-1.063 1.645-.663 1.239-1.609 2.285-2.327 3.484-.963 1.022-2.065 1.936-2.82 3.14-1.016.875-1.834 2.002-3.094 2.543-.018.487-.03.972-.023 1.46-.364.62-.647 1.342-1.244 1.775-.455.29-.983.009-1.438-.119a20.367 20.367 0 0 1-.325-3.292l-.097.428c-.057-.437-.126-.875-.192-1.307-.086-.61-.15-1.224-.188-1.84l-.701-.025c-.508-.524-1.016-1.055-1.36-1.703-.978-.892-1.61-2.074-2.529-3.011-.593-.74-1.463-1.244-1.908-2.095-.836-.902-1.528-1.946-2.504-2.708-2.11-2.02-4.57-3.605-6.933-5.296-1.445-.799-2.88-1.634-4.435-2.197-2.24-1.372-4.935-1.437-7.356-2.304-1.099-.466-2.306-.246-3.454-.394-1.977-.313-3.991-.108-5.982-.107-2.115-.076-4.211.584-6.011 1.677-.683.446-1.563.257-2.258.685-1.882 1.046-3.876 1.868-5.887 2.618-1.612.832-3.167 1.785-4.818 2.55-1.56 1.007-3.313 1.663-4.831 2.744-2.445 1.266-4.673 2.9-7.138 4.129-2.26 1.544-4.875 2.506-6.997 4.27-1.638.919-3.015 2.207-4.426 3.434-.595.542-1.073 1.206-1.744 1.657-.881.574-1.358 1.579-2.22 2.185l-.075.514c-.27.158-.545.306-.803.486-.057.444.09.89.116 1.338.12.884-.065 1.796.193 2.666.393 1.48.67 2.997.772 4.529.42 3.927 1.28 7.835 2.925 11.432.65 1.155.895 2.48 1.487 3.661.509 1.03.88 2.132 1.48 3.114.598.804.98 1.745 1.569 2.557.962 1.422 1.572 3.048 2.496 4.492.387.736.926 1.423 1.043 2.27.292 1.653.678 3.3 1.293 4.865-.127.475-.146 1.018-.498 1.398-.657.753-1.404 1.465-2.34 1.846-1.532.734-3.259.75-4.918.868-1.134.164-2.302.287-3.42-.034-.386-.176-.682.154-.964.359-1.366.195-2.587.882-3.938 1.127-.948.352-1.828.87-2.812 1.136-1.979.903-4.187 1.134-6.34 1.134-1.773.169-3.54.366-5.305.62-1.921-.024-3.798.556-5.726.502-1.234-.029-2.48.053-3.704-.158-2.431-.357-4.713-1.315-7.007-2.156-1.159-.422-2.238-1.055-3.448-1.326-2.006-.488-3.883-1.4-5.652-2.462-.55-.39-.967-.935-1.443-1.404-1.987.768-3.71 2.115-5.757 2.74-2.395.682-4.373 2.27-6.633 3.27-2.419 1.393-5.008 2.448-7.448 3.805-2.573 1.435-5.287 2.575-7.969 3.787-.808.385-1.747.566-2.416 1.199.064 1.794-.328 3.588-1.008 5.235a11.441 11.441 0 0 0-1.21 2.273c-1.682 2.302-4.17 3.846-6.731 4.982-.92.483-1.993.28-2.984.214-.995-.185-2.068-.24-2.945-.807-1.235-.83-2.113-2.153-2.45-3.61-.028-.99-.108-1.988-.002-2.974.242-1.007.793-1.9 1.169-2.858.484-1.255 1.538-2.138 2.452-3.073 1.008-.925 2.006-1.937 3.274-2.494 1.491-.52 3.066-.916 4.656-.715.955.148 2.103-.047 2.828.742.893-.614 1.416-1.57 2.092-2.388 2.26-1.615 4.222-3.633 6.497-5.234 1.227-1.153 2.528-2.23 3.666-3.471 1.233-1.153 2.174-2.6 3.526-3.623 1.282-1.018 2.252-2.379 3.579-3.336 1.16-.805 2.088-1.892 3.183-2.778 1.305-1.06 2.467-2.29 3.851-3.251l-.402-.451c-.427-1.575-.578-3.193-.519-4.822.102-1.777-.448-3.547-.111-5.314.184-1.498 1.028-2.79 1.445-4.218.437-1.085.972-2.133 1.53-3.16 1.352-1.69 2.145-3.752 3.433-5.49 1.154-1.69 2.296-3.392 3.636-4.94a6.28 6.28 0 0 1 2.598-2.083c-.25-.988-.119-2.027-.387-3.01-.504-2.044-.715-4.144-1.082-6.214-.564-1.742-1.274-3.484-1.261-5.352-.567-2.527-1.307-5.154-.733-7.753.42-1.82.417-3.714.923-5.514.273-1.063.312-2.199.837-3.18.65-1.3.868-2.768 1.47-4.084 1.11-1.682 1.97-3.523 3.12-5.177.79-.916 1.586-1.83 2.359-2.76 1.962-1.868 3.966-3.694 5.953-5.539 1.818-1.55 3.128-3.645 5.13-4.993.79-.674 1.633-1.278 2.447-1.92.88-1.03.978-2.474.967-3.776-.076-1.36.99-2.503 2.201-2.927 1.02-.354 1.96-.886 2.864-1.476-.872-.901-1.392-2.062-2.139-3.058-.16-.274-.434-.528-.408-.872.138-.347.332-.666.513-.989.342-.26.668-.534.99-.819-4.007-4.02-7.618-8.42-11.069-12.93-1.477-1.668-2.969-3.315-4.58-4.854-1.094-.94-1.996-2.105-2.762-3.326-.385-2.467-.115-4.98-.542-7.442-.688 1.074-1.262 2.22-1.902 3.322-.92 1.739-1.696 3.58-2.947 5.111-.375.455-.83.872-1.035 1.441-.396 1.167-.129 2.457-.552 3.617-.302.081-.614.123-.923.177-.552-.73-.332-1.677-.58-2.51-.836-2.901-1.356-5.885-2.228-8.776-.455-1.02-.688-2.118-1.035-3.175-.341-1.097-.802-2.152-1.049-3.276-.502.307-.941.696-1.417 1.04-1.22.726-2.663 1.059-3.724 2.046-.6.602-1.755.76-2.312.025-.654-.822-1.166-1.75-1.769-2.61-1.092-1.552-1.629-3.397-2.488-5.074-.465-1.364-1.166-2.616-1.763-3.918a7.071 7.071 0 0 1-4.022-.713c-.992-.514-2.215-.77-2.838-1.799-.988-1.036-1.638-2.312-2.365-3.533-.748-1.874-1.32-3.848-1.422-5.877-.093-.843.603-1.429 1.03-2.056l-.005.003zm.416 2.542c-.127.578.125 1.157.207 1.726.512 1.611.822 3.43 2.062 4.664.742 1.117 1.44 2.485 2.797 2.926 1.097.387 2.196.815 3.368.921.008-.56-.121-1.282.474-1.594.632-.056 1.103.403 1.557.77.701-.198 1.449-.32 2.077-.711.565-.688 1.038-1.567.879-2.492-.146-1.101-.193-2.24-.618-3.28l.038.266c-.657-2.294-2.57-3.86-4.433-5.158-1.519-.773-3.222-1.496-4.957-1.166-1.578.345-2.964 1.564-3.454 3.129l.003-.001zm11.49 13.23c.682 1.244 1.243 2.55 1.835 3.837.565 1.292 1.49 2.379 2.09 3.653.217.427.442.844.676 1.26 1.722-1.298 3.912-1.714 5.615-3.03l.768-.98.726-.024c.355.589.734 1.212.711 1.928-.042 1.75 1.083 3.2 1.367 4.879.156.916.508 1.778.818 2.647.36 1.998 1.035 3.92 1.423 5.916.483-.494.933-1.018 1.358-1.559 2.285-3.626 4.182-7.48 6.052-11.334.188-.307.523-.48.793-.708l.666.372c-.093 1.628 0 3.257-.096 4.88.024 1.225-.268 2.45-.042 3.666.103.627.069 1.266.149 1.895.497.805 1.298 1.358 1.85 2.121.773 1.061 1.852 1.825 2.74 2.779.943.908 1.674 2.01 2.561 2.973 1.07 1.018 1.743 2.363 2.674 3.501 2.472 2.77 4.78 5.688 7.208 8.501.503.53.833 1.19 1.099 1.868.625-.348 1.42-.681 1.709-1.372-.906-1.537-2.185-2.798-3.464-4.015-1.051-1.32-2.204-2.567-3.068-4.028-1.382-1.478-2.49-3.186-3.812-4.718-.754-1.088-1.86-1.84-2.664-2.881-1.485-1.879-3.27-3.479-4.8-5.313-.43-1.301-.162-2.687-.38-4.023-.381-2.621.192-5.295-.275-7.903-.083-.947-.07-1.897-.117-2.846-1.182 1.161-2.153 2.515-3.047 3.906-.604 1.185-1.412 2.247-2.003 3.438-.58 1.2-1.446 2.22-2.126 3.359-.44.844-1.49.915-2.323.87-.272-.516-.616-.996-.85-1.53-.321-.935-.398-1.933-.667-2.884-.749-2.275-1.103-4.685-2.192-6.833l-.38-1.123c-1.2.57-2.077 1.597-3.154 2.344-1.019.563-2.165.874-3.1 1.597-.546.007-1.094.011-1.64.055-.417-.779-.912-1.526-1.638-2.048-1.157-.835-1.705-2.28-2.858-3.105l.087-.184c-.055-.725-.991-.002-.278.194v.002zM111.796 53.9c-1.744.046-3.304.92-4.998 1.226-1.374.297-2.533 1.183-3.933 1.388-1.378.595-2.84 1.024-4.12 1.833-.696.463-1.596.65-2.069 1.4-2.318 1.165-4.846 1.876-7.05 3.274a129.16 129.16 0 0 0-9.797 5.3c-2.297 1.166-4.53 2.448-6.81 3.643a66.8 66.8 0 0 1-.32 1.256c-.473.025-1.013-.16-1.422.162-1.434.9-2.636 2.11-3.91 3.22-1.744 2.098-3.838 3.852-5.841 5.69-1.044 1.11-2.172 2.128-3.249 3.203-1.377 1.61-2.672 3.304-3.66 5.194-.125.135-.227.294-.338.442 1.222-.372 2.398-.97 3.698-1.016.987-.02 1.962-.224 2.95-.247 1.756.094 3.48-.38 5.241-.264 1.407-.135 2.77.257 4.16.346 2.7.89 5.46 1.677 7.938 3.113 2.456 1.075 4.876 2.373 6.783 4.3 1.995 1.68 4.041 3.341 5.63 5.434.818 1.3 1.72 2.545 2.52 3.858 1.687-1.869 4.055-2.964 5.614-4.972.58-.841 1.562-1.196 2.322-1.827 1.201-1.082 2.644-1.821 3.981-2.705 1.518-.791 3.09-1.477 4.6-2.284.928-.508 1.998-.623 2.945-1.077.944-.463 2.086-.544 2.787-1.421 1.73-.422 3.248-1.412 4.881-2.09.992-.375 1.993-.733 2.964-1.16 1.21-.54 2.572-.877 3.51-1.877 2.443-.721 4.685-1.96 7.105-2.737.887-.357 1.712-.879 2.662-1.067.998-.197 1.937-.666 2.963-.713 1.547.038 3.024-.552 4.577-.487 1.487.063 2.88-.864 4.364-.476 1.01.176 1.682 1.104 2.64 1.435 1.765.613 3.536 1.242 5.18 2.142.99.53 2.067.924 2.946 1.637 1.392 1.413 3.171 2.348 4.598 3.721 1.255 1.352 2.688 2.534 3.786 4.028.441.619.875 1.243 1.287 1.884.88 1.426 2.088 2.615 2.884 4.098.978 1.417 1.455 3.084 2.002 4.7.611 1.866 1.359 3.708 1.63 5.668.35 1.47 1.072 2.846 1.165 4.382.701 1.29.475 2.804.828 4.187.267 1.111.437 2.248.555 3.386l.31.01c.046-.989.193-1.967.263-2.954.055-1.546-.227-3.074-.39-4.604.007-1.515-.006-3.043-.247-4.544-.208-.858-.443-1.712-.584-2.583-1.395-4.377-2.215-8.985-4.343-13.094-1.144-3.082-1.939-6.346-3.687-9.157-1.379-1.78-2.172-3.93-3.559-5.702-.7-.911-1.747-1.45-2.498-2.312-1.119-1.037-1.984-2.319-3.174-3.278-1.5-1.54-2.818-3.249-4.275-4.828-.584-.912-1.547-1.447-2.272-2.225-.562-.585-1.235-1.038-1.85-1.564a30.595 30.595 0 0 0-5.76-4.548c-1.349-.51-2.452-1.45-3.722-2.105-1.635-.93-3.184-2.004-4.829-2.917-1.261-.633-2.612-1.045-3.879-1.666-1.336-.308-2.726-.493-4.099-.368.424.447 1.041.57 1.574.835.712.325 1.283.91 2.023 1.176 1.387 1.27 3.224 1.906 4.543 3.265 2.126 1.87 3.895 4.097 5.943 6.049 2.467 2.82 4.847 5.761 6.612 9.094.785 1.737 1.623 3.451 2.445 5.167.588.96.381 2.136.41 3.21l-.608.163c-.896-2.653-2.248-5.102-3.494-7.594-1.35-2.418-2.861-4.75-4.617-6.89-1.132-1.464-2.167-3.025-3.556-4.258-.94-.838-1.697-1.86-2.582-2.745-1.597-1.146-3.002-2.58-4.758-3.484-.937-.51-1.888-1.003-2.753-1.634a15.021 15.021 0 0 0-4.108-1.518c-1.417-.435-2.827-.893-4.275-1.199-.895-.265-1.817-.435-2.71-.712-1.167-.396-2.376.116-3.565-.039-1.38.076-2.731.394-4.113.422h.005v.001zm-30.862 2.146c-1.482 1.085-2.96 2.193-4.63 2.964.14.301.29.646.659.708l-.198.097c.77.752 1.43 1.608 1.764 2.65 1.365-.836 2.732-1.694 3.96-2.733a4.48 4.48 0 0 1 1.225-.743c-.595-.697-.875-1.611-1.53-2.261-.149-.297-.286-.596-.415-.898-.297-.02-.609-.006-.836.216zm4.842 3.36c-.79.759-1.819 1.183-2.672 1.858-1.112.93-2.41 1.585-3.61 2.384-1.359.664-2.492 1.722-3.907 2.282-.561.278-1.207.53-1.53 1.109-.497.878-.34 1.918-.463 2.88 1.867-.98 3.73-1.983 5.643-2.876 1.295-.404 2.197-1.506 3.42-2.056.94-.422 1.787-1.029 2.741-1.421.658-.283 1.088-.88 1.63-1.322 1.29-.812 2.631-1.538 3.986-2.24l.097.066c.56-.217 1.136-.395 1.72-.534 1.07-.44 2.13-.896 3.194-1.341.255.36.741-.307.281-.39-.995.275-2.04.26-3.06.299-1.53-.2-3.058-.469-4.605-.382a12.546 12.546 0 0 1-2.866 1.684zm130.053 4.42c-.768.347-1.644.638-2.115 1.395-.733.872-.847 2.05-.804 3.146l-.222 1.185c.555.03 1.217-.222 1.673.227l.527.067c.293.252.588.498.898.736l-.429 1.427-.137-.338-.14.61c.867.377 1.855.455 2.793.52 1.355-.58 2.814-1.183 3.72-2.424.875-.89 1.081-2.157 1.417-3.31l-.268-.421c-.102-.3-.22-.608-.443-.835-.576-1.146-1.627-1.947-2.772-2.449-1.263-.31-2.466.288-3.697.461l-.001.002zm-3.412 7.26c-1.599.761-3.288 1.281-4.894 2.027l-.004.015c-.822.144-1.443.731-2.19 1.05-2.03.9-3.93 2.081-5.98 2.93-1.66.82-3.089 2.053-4.806 2.764-1.42.873-2.975 1.477-4.445 2.243l-.444-.098c.376.791 1.05 1.377 1.5 2.121.54.924 1.074 1.864 1.425 2.888.072.314.179.619.286.928 1.733-1.296 3.33-2.816 5.263-3.828 2.027-1.101 3.583-2.907 5.643-3.954 2.117-1.339 4.32-2.66 5.892-4.666 1.203-.758 2.337-1.671 3.226-2.798.424-.546 1.04-1.032 1.051-1.786-.512-.022-1.053-.072-1.523.163zm-46.054 3.075c-.129.234-.269.46-.42.68-.786.185-1.588.289-2.367.512-.172.12-.542.17-.346.449 1.065 1.237 2.369 2.23 3.52 3.379.601.711 1.153 1.469 1.732 2.205.008.345.029.692.05 1.038.86 1.031 1.475 2.235 2.22 3.347.958 1.525 1.286 3.33 2.03 4.955.774 1.705 1.237 3.53 1.925 5.27 1.22 2.326 1.57 4.974 2.538 7.401.729 1.683.9 3.54 1.6 5.237.136 1.385.842 2.654.812 4.066.173 1.699-.117 3.419.18 5.107.214 1.147.063 2.314.13 3.473.781-.728 1.567-1.45 2.458-2.043 1.755-2.04 3.622-4.064 4.755-6.546.455-1.097 1.496-1.873 1.693-3.086.322-.735.6-1.49.882-2.242l-.83-.442c-.068-.451-.175-1.018.39-1.183a22.5 22.5 0 0 0-.92-8.505c-.34-1.994-.985-3.92-1.774-5.775-.893-2.058-1.76-4.131-2.854-6.086-1.18-1.613-2.032-3.463-3.419-4.916-1.088-1.018-1.882-2.389-3.262-3.057-.598-.77-1.244-1.658-2.246-1.882-1.687-.488-3.362-1.034-5.058-1.488-1.138-.118-2.298-.111-3.42.13v.002zm12.226 2.192c-.105.277.003.405.324.384.426.332.799.729 1.103 1.175l.011.003c1.73 1.777 3.366 3.686 4.587 5.866.551 1.058 1.352 1.965 1.792 3.087 1.359 3.032 2.829 6.072 3.41 9.38.243 1.45.665 2.862.969 4.301.281 1.274.194 2.583.225 3.876.643-1.378 1.003-2.872 1.626-4.26.472-1.408.721-2.9.426-4.373.318-1.747-.007-3.513-.56-5.177l-.11-.013c-.075-.53-.135-1.075-.373-1.556-.565-1.055-.957-2.192-1.639-3.184-.825-1.706-2.187-3.04-3.546-4.313-.49-.477-.956-1.083-1.682-1.162-.99-.794-1.998-1.575-3.08-2.235l-.052-.099-.266-.016.2.01c-.924-.49-1.847-.985-2.802-1.4-.082-.322-.27-.422-.566-.293h.003zm-33.129 7.29c-1.709.437-3.497.09-5.212.51-2.098.187-4.09.924-6.05 1.653-2.007 1.063-4.182 1.724-6.327 2.437-.986.476-1.935 1.037-2.989 1.363-2.453 1.367-5.198 2.068-7.694 3.353-1.488.812-3.053 1.472-4.568 2.236-3.328 1.196-6.424 2.957-9.363 4.92-.828.519-1.561 1.278-2.578 1.38a15.59 15.59 0 0 0-1.06 1.174c-1.64 1.994-3.813 3.434-5.488 5.395a1.374 1.374 0 0 0-.316.538c-.807 2.636-1.225 5.363-1.693 8.075-.61 2.792-.779 5.691-.34 8.52.689-1.254 1.999-1.911 2.936-2.936.84-.92 1.867-1.639 2.753-2.51.877-.85 1.966-1.414 2.945-2.125 2.14-1.553 4.55-2.654 6.79-4.041 1.7-1.06 3.46-2.017 5.144-3.1.59-.373 1.21-.7 1.85-.98 1.22-.541 2.28-1.373 3.477-1.96 2.334-1.15 4.522-2.578 6.833-3.767 1.939-.67 3.637-1.863 5.476-2.745 1.707-.43 3.15-1.636 4.938-1.774 4.181-.538 8.42-.653 12.616-.22 1.025.122 1.974.563 2.982.766 4.685 1.026 9.164 3.084 12.912 6.113.847.603 1.736 1.148 2.49 1.875 1.542 1.199 3.169 2.386 4.255 4.05.54.828 1.38 1.428 1.787 2.349l.433.25c.605.986 1.549 1.733 1.989 2.826.42 1.02 1.03 1.957 1.842 2.705-.13-1.306-.72-2.506-.83-3.814-.135-1.81-.982-3.444-1.43-5.176-.502-1.942-1.006-3.9-1.843-5.726-.463-1.03-.74-2.134-1.279-3.128-.694-1.39-1.752-2.538-2.63-3.806-.81-1.19-1.663-2.351-2.451-3.555-.435-.634-.812-1.335-1.43-1.81-1.278-1.017-2.523-2.086-3.634-3.289-.499-.528-.995-1.087-1.668-1.388-1.552-.739-2.675-2.166-4.29-2.792-1.302-.656-2.768-.883-4.03-1.629-1.694-.491-3.526-.669-5.254-.217zm-81.944 7.361c-1.73.108-3.466.187-5.184.405l.272.01c-1.234.226-2.433.62-3.66.885-.55.213-1.32.22-1.605.833a34 34 0 0 0-1.336 3.358c-.843 3.019-1.035 6.162-1.447 9.259-.142 2.708.504 5.362.811 8.034.176 1.794 1.127 3.376 1.393 5.15.087 2.107 1 4.077 1.064 6.192.51-.2 1.049-.298 1.598-.301.277-.102.557-.204.839-.297l.029-.106c2.449-.302 4.926-.764 7.394-.412 1.588.247 3.223-.038 4.792.37 1.113.28 2.277.238 3.383.546 2.09.75 3.824 2.254 5.935 2.987 2.574 1.27 4.93 2.943 7.172 4.734 1.412 1.266 2.601 2.764 4.044 3.995 1.35 1.34 2.187 3.089 3.271 4.64-.029-1.064-.38-2.082-.467-3.138-.255-2.481-.766-4.922-1.112-7.389-.164-1.031.01-2.11-.293-3.116.086-1.692-.252-3.365-.227-5.055-.019-1.868.162-3.722.277-5.582.254-1.998.963-3.916 1.116-5.93.135-1.01.568-1.98.46-3.018.05-.675-.49-1.157-.76-1.72-1.794-3.372-4.745-5.857-7.536-8.352-1.113-1.255-2.632-1.985-4.009-2.883-1.653-.95-3.494-1.467-5.249-2.174-1.34-.552-2.797-.736-4.13-1.31-2.163-.893-4.55-.883-6.835-.615zm-6.882 34.74l.085.104c-.848.163-1.682.394-2.51.634l-.051.584c-2.153 1.866-3.916 4.139-5.544 6.47-.785.969-1.196 2.207-2.118 3.07-.556 1.553-1.8 2.728-2.501 4.212 1.068-.062 2.146-.343 3.21-.104l.71.08c1.48.209 2.992.304 4.413.81 1.377.557 2.863.837 4.15 1.61 2.058 1.292 4.251 2.541 5.733 4.533.874 1.032 1.846 1.98 2.673 3.052a44.581 44.581 0 0 1 3.123 5.61c.72 1.236 1.029 2.642 1.447 4 .231 1.07.309 2.174.697 3.208.108 1.278.299 2.55.32 3.84-.338.854-.183 1.81-.349 2.703-.337 1.987-.92 3.924-1.58 5.824 2.532-.305 5.063-.654 7.613-.779 2.02-.377 4.082-.39 6.115-.688 1.122-.15 2.201-.52 3.301-.79 1.433-.441 2.923-.865 4.105-1.846.72-.083 1.497-.094 2.125-.506.46-.441.847-.958 1.301-1.404.233-1.183.44-2.374.503-3.577.103-2.17.756-4.286.647-6.468.002-1.943-.11-3.891.195-5.817-.103-2.298-.314-4.707-1.414-6.769a48.679 48.679 0 0 0-1.237-3.28c-.843-1.558-1.493-3.231-2.597-4.633-1.03-1.695-2.717-2.788-3.98-4.276a26.01 26.01 0 0 0-4.791-3.973c-2.03-1.475-4.427-2.3-6.556-3.609-1.35-.833-2.812-1.597-4.416-1.736-1.851-.086-3.673-.493-5.524-.563-1.447 0-2.9-.076-4.344.043-.99.122-1.958.38-2.953.432h-.001zM43.28 142.047l-.222.524-.26.657c-.541 1.439-1.142 2.875-1.362 4.413-.042 1.078-.062 2.165.036 3.244.181 1.527.181 3.07.433 4.59.015.327.235.663.538.354.46-.357.754-1.416 1.477-1.017.804.639 1.865.147 2.75.533 1.925.761 3.778 1.791 5.305 3.209.784 1.053 1.34 2.291 1.737 3.543.172 1.256.335 2.564-.092 3.793-.167.761-.948 1.088-1.473 1.566-.9.776-2.053 1.119-3.084 1.664 1.381 1.236 3.13 1.898 4.816 2.58 2.394.676 4.68 1.673 6.928 2.738 1.523.749 3.222 1.048 4.9 1.17.712-.584 1.483-1.168 1.829-2.062.763-1.82 1.081-3.8 1.247-5.76.086-1.174.467-2.388-.016-3.53-.444-2.302-.974-4.593-1.8-6.789-.919-1.798-1.768-3.645-2.93-5.3-.65-.735-1.248-1.514-1.925-2.226-.722-.753-1.238-1.695-2.058-2.355-1.217-1.004-2.366-2.12-3.78-2.846-1.104-.67-2.342-1.05-3.524-1.544-1.974-.817-4.097-1.245-6.225-1.335-1.077.134-2.196-.15-3.245.185v.001zm52.282 8.842c.213 1.682.502 3.377.328 5.08.01 2.591.002 5.19-.293 7.77-.527 2.36-.454 4.803-.941 7.173 1.294.416 2.656.002 3.97-.086 1.84-.235 4.164-.416 5.05-2.363.058-1.127-.467-2.168-.803-3.21-.307-.878-.314-1.862-.816-2.663-1.2-2.039-2.213-4.193-3.535-6.156-.692-1.104-1.242-2.29-1.875-3.427-.391-.692-.538-1.523-1.086-2.118h.001zm-52.356 6.366c-.7.68-1.412 1.353-2.212 1.919l-.01.088c-1.304.673-2.399 1.68-3.432 2.712-1.295 1.078-2.529 2.229-3.836 3.295-1.394 1.372-2.764 2.768-4.279 4.01-1.633 1.922-3.384 3.743-5.166 5.528-.9.571-1.583 1.413-2.422 2.068a47.961 47.961 0 0 0-2.864 2.43c-.638.595-1.46.981-1.997 1.688-.3.376-.587.76-.89 1.136.22.274.44.555.654.84l.441-.39.174-.287.142.234c4.383-1.418 8.357-3.82 12.607-5.572l4.079-1.943c2.38-.963 4.325-2.795 6.795-3.547.876-.294 1.688-.745 2.502-1.174 1.054-.567 2.174-1.002 3.198-1.624 1.687-.926 3.504-1.63 5.078-2.75 1.137-1.183.434-2.94.217-4.344l-.117.048c-.444-.941-.898-1.948-1.808-2.524-1.418-.961-2.92-1.895-4.609-2.252-.76-.102-1.655-.19-2.246.41l.003.001h-.002zM7.74 183.036c-.947.455-1.615 1.293-2.437 1.923-1.989 1.612-3.484 4.001-3.577 6.624.082.808.422 1.55.91 2.194 1.153 1.583 3.311 1.927 5.121 1.62 1.406-.257 2.433-1.326 3.628-2.022.548-.35 1.152-.65 1.568-1.167 1.482-2.068 2.736-4.414 2.974-6.996-.109-.22-.237-.43-.383-.627-.194-.507-.557-.919-.919-1.307a18.99 18.99 0 0 1-.563-1.237c-2.127.001-4.38-.01-6.322.998v-.003z"/><path d="M114.324 60.64c1.146-.042 2.293-.116 3.429-.28 1.574.41 3.217.343 4.795.74 1.872.127 3.71.503 5.544.875 1.89 1.16 4.154 1.832 5.597 3.627 1.756 1.622 2.834 3.96 2.887 6.362-.394 1.486-1.276 3.211-2.912 3.53-2.455.6-4.74 1.727-7.161 2.435-2.747.892-5.22 2.387-7.623 3.964-1.547.93-3.18 1.707-4.676 2.727-1.32.908-2.742 1.648-4.117 2.468-1.118.796-2.164 1.692-3.24 2.542-2.108 1.491-4.446 2.59-6.658 3.91-1.06.235-2.033.776-3.119.904-2.282.252-4.868.335-6.742-1.231-1.029-.628-1.404-1.828-2.105-2.746-.78-.982-.793-2.278-.986-3.46-.164-1.01-.025-2.028.121-3.028.133-1.87 1.078-3.536 1.906-5.167.81-1.81 2.17-3.355 2.568-5.343 1.048-1.18 1.731-2.64 2.82-3.784.917-.932 1.553-2.109 2.558-2.958 1.95-2.29 4.92-3.154 7.535-4.404 2.125-.733 4.381-.988 6.603-1.226 1.003-.086 1.963-.46 2.975-.46v.003zm-3.449 1.773c-2.685.405-5.408.89-7.876 2.08-1.092.66-2.25 1.212-3.309 1.926-1.424 1.105-2.441 2.633-3.685 3.922-.96 1.127-1.843 2.319-2.798 3.451-1.047 1.202-1.307 2.888-2.397 4.061-.611 1.187-.995 2.492-1.473 3.741-.32 1.415-.996 2.768-.846 4.256-.087 1.99.947 3.754 1.962 5.37.958 1.189 2.467 1.679 3.93 1.82.914-.166 1.856-.022 2.77-.213 1.886-.34 3.545-1.376 5.146-2.381a36.137 36.137 0 0 0 5.614-3.658c1.114-.74 2.144-1.612 3.368-2.166 1.943-1.412 4.089-2.492 6.138-3.733 1.72-.89 3.284-2.063 5.105-2.754 1.442-.891 3.087-1.302 4.583-2.08.957-.459 2.04-.565 2.99-1.054 1.072-.52 2.288-.598 3.37-1.087 1.17-.697 1.62-2.243 1.304-3.531-.092-1.306-.967-2.315-1.587-3.397-1.726-1.845-4.012-3.048-6.367-3.865-2.149-.556-4.367-.715-6.545-1.106-1.586-.294-3.202-.081-4.798-.158-1.56-.07-3.038.616-4.598.556z"/><path d="M104.808 66.827c.246-.4.492-.959 1.067-.773.698.579 1.37 1.201 2.18 1.63a19.371 19.371 0 0 1 3.845 3.058l.377-.014c.275-.717.44-1.467.646-2.206.227-.61.948-.358 1.432-.357l.213.515c.002 1.51 1.196 2.543 1.845 3.787 1.32-.73 1.786-2.3 2.498-3.542.498-.813.219-2.056 1.088-2.616.54-.061.864.464 1.145.84.705 1.05 1.623 1.926 2.37 2.944.364-.402.852-.77.92-1.351.137-.482.032-1.074.415-1.45.613-.219 1.225.13 1.804.3 1.44.568 2.94.994 4.278 1.793.547.368 1.228.373 1.817.635.223.319.188.733.262 1.103-1.31.607-2.41-.565-3.577-.997-1.146-.4-2.233-.948-3.395-1.301-.474.998-1.267 1.778-1.893 2.676-.247.375-.661.647-1.122.556-.275-.451-.455-.952-.742-1.39-.535-.866-1.36-1.477-2.08-2.172-.48 1.107-.902 2.239-1.382 3.347-.405 1.03-1.404 1.666-1.76 2.728-.484.16-.998.312-1.436-.043-.22-1.41-.909-2.755-1.98-3.696-.13.64-.265 1.282-.365 1.93-.35.161-.746.436-1.137.23l-1.612-1.816c-.997-.879-2.118-1.61-3.28-2.244.475 1.897 1.071 3.893.658 5.855.145 1.101.445 2.173.647 3.262.14.623-.623.859-1.095.713-.82-.195-1.664-.126-2.488-.232-.685-.274-1.36-.585-2.094-.706.026.678.528 1.16.782 1.752.23.655.238 1.358.408 2.03.05.34.18.714-.002 1.039-.403.26-.924.402-1.373.177-1.113-.439-2.302-.575-3.467-.8.606 1.021 1.474 1.85 2.074 2.87.367.502-.16 1.22-.73 1.152-1.522-.126-3.048.015-4.57-.116-.289 1.455-.978 2.78-1.255 4.24-.445-.085-1.031.137-1.354-.277-.504-.451.078-1.102.204-1.612.52-1.044.536-2.243.963-3.308 1.169-1.27 2.98-.173 4.431-.405-.355-1.133-1.359-1.79-2.041-2.68-.433-.592.115-1.115.557-1.462 1.677.31 3.454.247 5.04.96-.117-1.473-1.084-2.663-1.435-4.068.339-.27.662-.566 1.036-.785.638-.157 1.244.144 1.828.359.932.37 1.944.449 2.936.504-.484-1.937-.11-3.94-.402-5.889-.566-1.558-1.067-3.143-1.698-4.677h-.001zm65.917 9.836c.708-1.02 2.507-1.025 2.992.22.742-.034 1.605-.155 2.131.516.742 1.367 1.963 2.638 1.877 4.308.063.79-.574 1.38-1.147 1.807-.872.584-1.964 1.088-3.022.76-1.304-.442-2.066-1.716-2.649-2.89-.742-1.45-.772-3.21-.18-4.722h-.002zm1.26 1.312c-.313 1.738.306 3.755 1.9 4.646.503.357 1.103-.01 1.596-.195-1.01-1.591-1.97-3.292-3.494-4.45h-.002zm1.419.028c.944.882 1.739 1.911 2.726 2.742-.35-.754-.758-1.488-1.266-2.142-.333-.475-.953-.49-1.46-.6zm4.151 10.126c.934-.506 2.186-.376 2.787.58 1.033.248 1.893.958 2.43 1.871.77 1.395 1.574 2.79 1.976 4.35-.465 1.097-1.348 1.91-2.255 2.633-1.067.04-2.369.106-3.1-.84-.93-1.223-1.908-2.527-2.123-4.098-.296-1.077-.417-2.188-.236-3.296.184-.393.355-.795.522-1.198v-.002zm.948 1.63c-.55 1.953.422 3.865 1.486 5.437.474.552 1.21.752 1.858 1.016-.05-2.203-1.249-4.099-2.445-5.85l.706-.017c.495.628 1.04 1.216 1.576 1.813.703.814.812 1.974 1.545 2.763-.268-1.079-.997-1.946-1.443-2.946-.604-1.268-1.728-2.147-2.91-2.825-.144.19-.27.395-.373.61v-.001zm4.637 12.187c1.471-.125 2.695.886 3.801 1.726.866.674.474 1.847.707 2.775.093 1.134.162 2.543-.83 3.322-.838.602-1.757 1.3-2.848 1.21-1.44.187-2.382-1.261-2.69-2.497-.666-1.736-.366-3.73.551-5.313.339-.484.734-1.028 1.31-1.223zm1.632 1.934c.255.796.667 1.534.887 2.342.107.749.054 1.514.058 2.27l.355-.167c.527-1.541.405-3.734-1.302-4.445h.002zm-1.247 5.822c.298-.342.749-.636.793-1.134.385-1.604-.206-3.248-1.153-4.534-1.397 1.597-1.224 4.255.36 5.668zm-128.258 18.89c1.563-.267 3.215-.487 4.76-.003 1.137.483 2.43.888 3.204 1.93.422.867.627 1.824.599 2.788.02.892-.516 1.65-.906 2.41-.348.717-1.125 1-1.75 1.404-1.925.4-3.933-.122-5.61-1.111-1.09-.502-2.01-1.3-2.754-2.243l.03-.57-.477-.261c.348-.85.048-1.807.433-2.642.75-.675 1.59-1.224 2.472-1.704l-.001.002zm1.36.994c-1.195.46-2.496 1.009-3.219 2.14.257.223.513.45.78.667.62-.81 1.472-1.386 2.265-2.008.693-.557 1.618-.47 2.445-.58-.746-.12-1.52-.543-2.27-.219zm-1.369 4.19c.396.558 1.056.817 1.643 1.115.982.453 2.03.905 3.134.811.935-.046 1.77-.775 1.97-1.698.368-.8.338-1.79-.325-2.42-1.352-.193-2.761-.51-4.103-.173-.86.681-1.808 1.364-2.318 2.366zm14.95 5.479c2.403-1.66 5.71-1.144 8.047.386 1.244.825 2.1 2.082 2.964 3.274.802 1.166.692 2.657.664 4.003-.484 1.237-.919 2.599-2.05 3.396a2.933 2.933 0 0 1-2.787.613c-1.16-.407-2.359-.807-3.323-1.604-.944-.748-1.426-1.94-2.423-2.63-.123-.25-.205-.528-.435-.693-1.063-.855-1.587-2.167-1.984-3.435-.1-1.255.252-2.574 1.327-3.31zm.295 2.135c1.341-.432 2.737-.556 4.121-.731 1.703.378 3.438 1.014 4.686 2.296-.643-.8-1.264-1.654-2.14-2.215-1.449-.956-3.268-1.365-4.975-1.04a3.76 3.76 0 0 0-1.692 1.69zm.827 1.252c-1.016.493-.11 1.705.411 2.256l.08.524c.642.224 1.225.6 1.595 1.19 1.077 1.536 2.784 2.675 4.667 2.804 1.442-.432 2.04-2.18 2.04-3.564-1.563-1.518-3.137-3.369-5.423-3.662-1.123-.042-2.35-.107-3.367.454l-.003-.002zm9.577 17.99c1.15-.935 2.621-1.542 4.112-1.463 1.055.274 2.286.634 2.758 1.742 1.778 3.243.473 7.899-2.81 9.619-1.053.656-2.36.804-3.567.592-1.262-.312-2.226-1.47-2.457-2.74-.184-.989.057-1.985.302-2.94.367-1.65.386-3.54 1.66-4.811h.002v.001zm3.007.041c1.257 2.253 1.477 4.864 1.717 7.385a5.468 5.468 0 0 0 1.469-3.76c-.057-1.195-.275-2.504-1.225-3.322-.649-.138-1.298-.281-1.959-.303h-.002zm-2.783 2.725c-.305.965-.218 2.003-.555 2.959-.638 1.352.525 3.376 2.088 3.18.403-.455.836-.88 1.29-1.278.156-2.401-.184-4.932-1.479-6.996-.613.584-1.16 1.284-1.344 2.134z"/></g><path d="M22.37 4.806c.489-1.568 1.877-2.79 3.457-3.137 1.737-.33 3.44.395 4.962 1.17 1.864 1.301 3.78 2.872 4.438 5.172l.037.229c-1.998.488-3.688-.97-5.45-1.628-1.2-.208-2.32-.715-3.505-.964-1.278.137-2.42.89-3.732.89-.082-.572-.334-1.151-.208-1.732zm193.613 59.1c1.232-.174 2.436-.773 3.703-.462 1.144.504 2.198 1.307 2.773 2.455-1.027-.438-2.174-.882-3.293-.557-1.104.322-2.333.554-3.163 1.426-.548.53-.979 1.183-1.606 1.625-.422.163-.896.046-1.335.066-.043-1.1.071-2.281.805-3.154.473-.76 1.349-1.052 2.117-1.4h-.001zm-10.511 10.38c.747-.32 1.37-.91 2.193-1.053-.248 1.148-.986 2.208-2.099 2.636a55.647 55.647 0 0 0-4.497 1.98c-1.305.638-2.278 1.792-3.587 2.422-.92.446-1.929.652-2.857 1.082-.782.334-1.5.824-2.325 1.047-.693.182-1.399-.013-2.076-.16 1.473-.767 3.028-1.372 4.45-2.248 1.72-.711 3.149-1.948 4.812-2.77 2.053-.852 3.954-2.035 5.986-2.938v.001zm-26.445 2.564l.242-.094c.958.42 1.881.915 2.805 1.404l-.2-.009a66.386 66.386 0 0 1-1.732-.121l-.01-.002a5.234 5.234 0 0 0-1.105-1.178zm3.167 1.416c1.083.662 2.091 1.446 3.083 2.243-1.343-.12-2.605-.931-3.083-2.241v-.002zM43.023 142.852l.222-.525c.758.051 1.512-.028 2.264-.1-.355 1.172-.827 2.302-1.3 3.43-.622 1.478-.712 3.102-1.163 4.631-.247.82-.328 1.675-.33 2.528.023 1.062-.525 1.998-.846 2.975-.253-1.524-.253-3.07-.434-4.603-.1-1.081-.079-2.171-.037-3.252.22-1.54.822-2.982 1.364-4.425l.26-.658zm-5.511 19.453c1.034-1.034 2.13-2.044 3.436-2.718-.092.726-.133 1.514-.565 2.138-.538.761-1.385 1.216-1.964 1.941-.582.727-1.132 1.493-1.862 2.083-.842.689-1.75 1.296-2.514 2.08-1.007 1.025-2.293 1.693-3.37 2.629-.622.536-1.25 1.074-1.965 1.486-1.635.879-2.81 2.417-4.493 3.226 1.784-1.789 3.537-3.614 5.172-5.543 1.516-1.243 2.887-2.641 4.284-4.018 1.308-1.07 2.544-2.223 3.84-3.304h.001zM7.664 183.42c1.946-1.01 4.2-.998 6.33-1 .177.417.355.835.563 1.24-.834.516-1.772.84-2.755.852-1.423.08-2.672.824-3.95 1.384-.752.358-1.589.65-2.138 1.316-.587.74-.91 1.663-1.553 2.365-.79.851-1.602 1.695-2.519 2.41.094-2.628 1.59-5.026 3.58-6.64.823-.63 1.494-1.473 2.441-1.928h.001z" fill="#F8B059" stroke="#F8B059"/><g fill="#F6941E" stroke="#F6941E"><path d="M22.577 6.193c1.313.001 2.455-.748 3.732-.885 1.186.247 2.306.753 3.506.961 1.761.653 3.45 2.105 5.449 1.619l.281 2.077c-1.313.991-2.405 2.63-4.201 2.66-1.284.062-2.621.052-3.825-.466-.973-.403-1.947-.81-2.877-1.312-1.24-1.231-1.552-3.047-2.064-4.655v.001zm88.34 55.707c1.562.06 3.04-.623 4.603-.555 1.598.075 3.216-.136 4.802.157 2.182.39 4.402.55 6.553 1.104 2.358.816 4.647 2.016 6.373 3.858.622 1.08 1.498 2.088 1.59 3.391.316 1.285-.132 2.83-1.306 3.524-1.083.488-2.3.566-3.373 1.086-.95.488-2.035.594-2.994 1.051-1.497.776-3.143 1.188-4.587 2.077-1.824.688-3.39 1.86-5.111 2.749-2.051 1.239-4.2 2.318-6.146 3.726-1.224.555-2.256 1.425-3.371 2.162a36.034 36.034 0 0 1-5.62 3.65c-1.602 1.004-3.263 2.038-5.15 2.379-.916.19-1.86.046-2.776.212-1.462-.14-2.974-.63-3.933-1.816-1.016-1.614-2.05-3.375-1.964-5.361-.152-1.485.525-2.836.847-4.248.478-1.247.862-2.55 1.475-3.735 1.09-1.171 1.35-2.853 2.4-4.054.956-1.13 1.84-2.319 2.8-3.444 1.245-1.285 2.263-2.811 3.69-3.915 1.06-.714 2.217-1.264 3.311-1.922 2.47-1.187 5.198-1.672 7.886-2.076h.001zm-6.076 4.405c.63 1.53 1.133 3.113 1.7 4.669.29 1.944-.083 3.945.4 5.878-.992-.055-2.004-.134-2.937-.503-.585-.216-1.193-.515-1.83-.358-.375.219-.698.515-1.038.783.35 1.401 1.32 2.59 1.436 4.06-1.586-.71-3.366-.648-5.045-.958-.442.347-.991.869-.557 1.46.682.89 1.688 1.544 2.044 2.676-1.455.23-3.268-.864-4.436.404-.43 1.062-.445 2.259-.966 3.301-.126.51-.708 1.159-.204 1.61.324.413.91.19 1.356.277.277-1.458.968-2.781 1.256-4.234 1.524.131 3.052-.01 4.575.117.571.067 1.099-.648.732-1.15-.601-1.019-1.47-1.846-2.076-2.864 1.165.223 2.355.36 3.47.799.45.223.97.08 1.375-.178.183-.324.052-.698 0-1.037-.17-.67-.178-1.373-.407-2.027-.255-.591-.756-1.072-.782-1.749.734.121 1.41.432 2.096.705.825.106 1.67.037 2.49.232.473.144 1.235-.09 1.096-.712-.202-1.088-.503-2.157-.647-3.256.412-1.958-.184-3.951-.658-5.844 1.162.633 2.285 1.363 3.281 2.24l1.615 1.814c.392.205.786-.07 1.137-.232.102-.646.238-1.285.368-1.926 1.071.94 1.762 2.282 1.982 3.688.437.357.952.205 1.436.044.357-1.061 1.357-1.696 1.763-2.723.48-1.107.9-2.236 1.384-3.34.72.693 1.545 1.303 2.082 2.167.286.439.468.937.743 1.388.46.092.876-.18 1.123-.555.626-.897 1.42-1.674 1.895-2.671 1.162.352 2.253.9 3.398 1.298 1.168.432 2.271 1.6 3.58.996-.073-.37-.038-.783-.261-1.102-.59-.261-1.27-.265-1.82-.633-1.34-.799-2.841-1.223-4.28-1.79-.581-.171-1.193-.518-1.808-.3-.383.376-.277.968-.416 1.448-.068.58-.556.947-.92 1.35-.748-1.018-1.666-1.892-2.372-2.94-.283-.376-.606-.9-1.148-.838-.87.56-.589 1.8-1.087 2.61-.714 1.24-1.18 2.806-2.503 3.537-.65-1.242-1.844-2.275-1.846-3.78l-.213-.514c-.486-.002-1.206-.255-1.433.357-.207.736-.373 1.483-.648 2.2l-.379.015a19.348 19.348 0 0 0-3.847-3.054c-.81-.427-1.482-1.048-2.183-1.626-.575-.186-.82.374-1.068.771h.002zm114.323-1.565c1.12-.324 2.267.118 3.295.555.224.227.34.534.444.834l.08.454c-.75.77-1.483 1.576-1.916 2.58-.707 1.496-2.61 1.175-3.831 1.93-.525.178-1.076.83-1.632.516l-.092-.127c.112-.486.311-.942.428-1.425-.31-.238-.605-.483-.898-.734l-.528-.066c-.457-.45-1.12-.197-1.675-.227l.223-1.183c.437-.021.913.094 1.335-.067.626-.44 1.057-1.09 1.606-1.616.83-.869 2.059-1.1 3.162-1.42v-.004zm-6.596 5.817c.47-.235 1.013-.185 1.526-.163-.01.753-.628 1.238-1.053 1.783-.89 1.125-2.025 2.036-3.229 2.793-4.633 1.605-8.195 5.144-12.302 7.693-1.698 1.094-3.59 2.124-4.542 4.016l-.26-.21c-.35-1.02-.885-1.958-1.427-2.883-.452-.742-1.126-1.326-1.502-2.116l.445.098c.677.144 1.384.339 2.076.158.826-.223 1.544-.71 2.325-1.044.927-.427 1.936-.632 2.857-1.076 1.308-.627 2.282-1.776 3.587-2.411 1.47-.723 2.97-1.38 4.497-1.971 1.113-.427 1.852-1.483 2.099-2.626l.004-.016c1.606-.743 3.299-1.264 4.9-2.023v-.002zm-32.424 6.816c.575.043 1.154.09 1.732.12l.266.016.053.1c.477 1.304 1.74 2.113 3.082 2.23.728.078 1.193.683 1.684 1.16 1.36 1.27 2.726 2.602 3.551 4.305.681.992 1.076 2.125 1.64 3.178.238.482.299 1.024.373 1.553l.11.014c.553 1.661.878 3.424.56 5.167.296 1.47.046 2.959-.426 4.365-.624 1.387-.983 2.876-1.628 4.253-.029-1.29.058-2.598-.224-3.869-.305-1.436-.728-2.846-.97-4.295-.583-3.3-2.054-6.335-3.415-9.361-.44-1.121-1.243-2.026-1.793-3.081-1.223-2.177-2.86-4.083-4.591-5.857l-.004.002zM43.245 141.389c1.05-.335 2.17-.05 3.249-.185 2.13.09 4.256.519 6.23 1.333 1.185.495 2.423.873 3.53 1.54 1.413.725 2.566 1.838 3.784 2.841.82.66 1.337 1.599 2.059 2.352.679.71 1.277 1.488 1.928 2.222 1.163 1.652 2.011 3.495 2.935 5.29.825 2.193 1.355 4.479 1.8 6.777.097.836.05 1.677-.005 2.513-.853-.047-1.752-.015-2.534-.416-.974-.5-1.945-1.03-3.02-1.281-.96-.228-1.835-.688-2.755-1.029-.91-.337-1.901-.237-2.84-.426-.651-.227-1.158-.76-1.83-.937-.699-.186-1.407-.332-2.086-.583-.4-1.248-.954-2.484-1.74-3.536-1.528-1.416-3.385-2.444-5.311-3.204-.886-.383-1.947.107-2.752-.531-.725-.398-1.018.658-1.48 1.015-.303.308-.522-.027-.536-.352.32-.973.87-1.907.846-2.963.002-.85.083-1.702.33-2.517.451-1.523.541-3.14 1.163-4.612.473-1.122.944-2.246 1.3-3.413-.751.072-1.506.15-2.263.099l-.002.003z"/><path d="M43.172 156.57c.592-.598 1.488-.51 2.247-.409 1.694.357 3.195 1.29 4.615 2.249.91.574 1.364 1.58 1.81 2.52-1.67.519-2.791 1.916-4.133 2.949-1.289.93-2.417 2.065-3.693 3.02-1.63 1.482-3.628 2.445-5.578 3.427-1.96 1.088-3.791 2.409-5.842 3.333-1.18.538-2.155 1.435-3.324 1.998-1.78.895-3.576 1.804-5.501 2.328-1.122.288-2.08.972-3.157 1.376-1.229.486-2.605.995-3.311 2.202l-.174.286-.444.389a33.387 33.387 0 0 0-.653-.84c.303-.373.592-.755.89-1.133.539-.706 1.36-1.091 2-1.685a48.273 48.273 0 0 1 2.867-2.425c.84-.653 1.524-1.495 2.426-2.065 1.683-.805 2.857-2.337 4.492-3.213.716-.41 1.343-.945 1.964-1.48 1.078-.931 2.364-1.598 3.371-2.615.764-.781 1.671-1.387 2.513-2.073.73-.587 1.28-1.35 1.862-2.072.579-.724 1.426-1.176 1.965-1.933.43-.621.473-1.404.565-2.13l.009-.088c.801-.566 1.514-1.235 2.217-1.914l-.003-.002zm-28.614 25.973c.362.39.725.8.92 1.305l.203.745c-.697.779-1.003 1.793-1.388 2.746-.573 1.413-2.015 2.101-3.043 3.126-.71.767-1.76.992-2.625 1.52-.71.417-1.458.804-2.282.923-1.258.277-2.536-.245-3.79.116-.487-.643-.829-1.384-.91-2.19.917-.711 1.728-1.553 2.52-2.401.641-.697.963-1.617 1.552-2.355.548-.662 1.385-.953 2.138-1.309 1.278-.556 2.527-1.3 3.95-1.378.984-.01 1.921-.335 2.754-.848h.001z"/></g><g fill="#7D4B0F" stroke="#7D4B0F"><path d="M35.144 8.5l-.039-.266c.427 1.038.473 2.175.62 3.274.159.925-.315 1.805-.88 2.49-.629.39-1.376.513-2.079.71-.455-.367-.926-.824-1.56-.769-.595.311-.465 1.033-.474 1.592-1.173-.106-2.273-.534-3.372-.919-1.357-.441-2.058-1.808-2.8-2.923.93.501 1.904.91 2.877 1.312 1.204.52 2.541.53 3.825.467 1.796-.029 2.887-1.67 4.202-2.662l-.282-2.078-.037-.228zM222.82 66.994l.268.422c-.338 1.15-.543 2.414-1.418 3.304-.907 1.238-2.369 1.84-3.725 2.42-.94-.063-1.927-.14-2.797-.519l.14-.61.138.338.093.127c.557.314 1.107-.338 1.633-.515 1.219-.756 3.123-.435 3.83-1.93.433-1.004 1.165-1.812 1.917-2.584l-.08-.453zm-25.392 16.54c4.106-2.55 7.667-6.09 12.301-7.696-1.573 2.004-3.78 3.323-5.899 4.659-2.061 1.048-3.62 2.849-5.65 3.949-1.935 1.01-3.534 2.528-5.268 3.822-.107-.307-.216-.612-.285-.927l.26.21c.951-1.893 2.842-2.923 4.542-4.02v.003zm-145.668 78.3l.119-.048c.216 1.403.92 3.157-.217 4.338-1.576 1.118-3.397 1.822-5.084 2.746-1.026.622-2.147 1.056-3.203 1.623-.816.427-1.627.878-2.503 1.172-2.474.75-4.42 2.581-6.803 3.543l-4.083 1.94c-4.255 1.75-8.234 4.147-12.621 5.563l-.142-.233c.706-1.207 2.082-1.718 3.311-2.203 1.076-.404 2.035-1.088 3.157-1.378 1.927-.524 3.722-1.432 5.501-2.327 1.168-.564 2.142-1.46 3.324-1.999 2.05-.924 3.883-2.246 5.842-3.335 1.95-.982 3.947-1.945 5.577-3.428 1.276-.956 2.404-2.09 3.693-3.021 1.343-1.033 2.465-2.431 4.135-2.951l-.001-.001h-.002z"/><path d="M53.606 162.308c.678.25 1.387.395 2.087.583.671.176 1.178.71 1.83.936.939.19 1.928.09 2.84.428.92.34 1.795.8 2.753 1.029 1.076.251 2.047.783 3.021 1.282.783.4 1.681.367 2.534.416.055-.836.101-1.678.005-2.514.484 1.14.103 2.352.016 3.524-.166 1.957-.484 3.933-1.249 5.753-.346.891-1.116 1.476-1.83 2.058-1.68-.122-3.38-.421-4.905-1.17-2.25-1.062-4.538-2.058-6.937-2.733-1.689-.68-3.438-1.342-4.82-2.575 1.031-.546 2.185-.888 3.086-1.662.526-.479 1.308-.804 1.476-1.565.426-1.226.263-2.532.092-3.787v-.003zm-38.211 22.455c.144.197.272.405.382.627-.238 2.577-1.492 4.92-2.978 6.986-.415.516-1.02.816-1.568 1.165-1.197.696-2.226 1.763-3.632 2.02-1.812.306-3.972-.037-5.129-1.618 1.255-.361 2.532.162 3.791-.116.823-.119 1.57-.507 2.282-.923.865-.529 1.917-.753 2.624-1.52 1.028-1.027 2.47-1.715 3.044-3.129.386-.952.691-1.966 1.388-2.745l-.204-.747z"/></g><path d="M34.246 18.472c-.658-.182.205-.85.256-.18l-.079.17-.178.01h.001z" stroke="#0C0606" fill="#0C0606" opacity=".81"/><g fill="#99987D" stroke="#99987D"><path d="M34.385 17.795l.193-.01 2.857 3.096c.724.518 1.22 1.264 1.637 2.041.545-.043 1.092-.047 1.64-.055 1.127 0 2.185-.447 3.212-.874 1.209-.507 2.372-1.135 3.42-1.936 1.088 2.144 1.442 4.545 2.19 6.813.269.948.346 1.941.668 2.874.232.533.576 1.01.85 1.524.831.047 1.881-.024 2.322-.867.681-1.134 1.546-2.151 2.126-3.347.59-1.188 1.398-2.246 2-3.427 1.293.043 2.072-1.144 2.952-1.904l.213.847c.467 2.6-.106 5.264.275 7.878.217 1.33-.049 2.713.38 4.01 1.53 1.829 3.314 3.423 4.799 5.296.803 1.038 1.91 1.788 2.664 2.873 1.321 1.527 2.43 3.23 3.81 4.704.865 1.456 2.017 2.7 3.068 4.016 1.277 1.211 2.558 2.468 3.463 4-.289.69-1.084 1.022-1.709 1.368-.266-.676-.595-1.334-1.099-1.861-2.428-2.804-4.735-5.713-7.206-8.475-.93-1.134-1.604-2.474-2.673-3.49-.887-.96-1.617-2.058-2.561-2.965-.887-.95-1.965-1.712-2.74-2.77-.552-.76-1.351-1.31-1.849-2.114-.08-.625-.045-1.263-.148-1.887-.227-1.213.066-2.435.041-3.656.097-1.62.002-3.243.097-4.864l-.667-.371c-.268.228-.605.4-.793.705-1.87 3.84-3.765 7.684-6.05 11.3-1.126-1.303-2.206-2.693-2.779-4.344-.311-.867-.663-1.726-.818-2.64-.285-1.672-1.409-3.118-1.367-4.864.022-.714-.355-1.334-.711-1.92l-.726.022-.767.977c-.844-.687-1.87-.212-2.78.03-1.287.323-2.26 1.315-3.51 1.735-.6-1.27-1.525-2.354-2.09-3.642-.594-1.284-1.154-2.585-1.834-3.825v-.001zm88.242 36.007c1.449.305 2.86.761 4.276 1.195 1.435.301 2.819.811 4.106 1.513.865.628 1.817 1.12 2.753 1.629 1.757.9 3.162 2.33 4.758 3.473.883.884 1.64 1.9 2.581 2.736 1.388 1.23 2.423 2.787 3.555 4.244 1.754 2.135 3.266 4.46 4.616 6.87 1.246 2.484 2.597 4.925 3.493 7.568l.609-.162c-.03-1.07.175-2.24-.412-3.199-.822-1.712-1.66-3.419-2.444-5.15-1.763-3.323-4.143-6.255-6.61-9.067-2.049-1.945-3.817-4.164-5.942-6.03-1.32-1.352-3.158-1.987-4.542-3.254 1.266.272 2.448.825 3.71 1.114 1.63.37 2.833 1.636 4.323 2.326 1.56.74 2.614 2.206 4.162 2.957.843.427 1.649.931 2.396 1.516 1.035.808 2.263 1.367 3.161 2.353.619.607 1.045 1.402 1.75 1.92 1.024.572 2.161.924 3.307 1.153 1.457 1.575 2.775 3.278 4.275 4.812 1.189.957 2.055 2.235 3.172 3.269.751.857 1.799 1.395 2.499 2.305 1.386 1.767 2.179 3.91 3.558 5.684 1.747 2.802 2.542 6.056 3.685 9.128 2.128 4.098 2.949 8.69 4.343 13.052.14.87.376 1.722.584 2.576.24 1.496.255 3.018.248 4.53.163 1.524.444 3.048.39 4.59-.072.982-.219 1.958-.264 2.944l-.31-.01a25.298 25.298 0 0 0-.555-3.376c-.353-1.378-.126-2.887-.828-4.174-.093-1.53-.815-2.903-1.166-4.368-.27-1.953-1.016-3.79-1.628-5.65-.548-1.61-1.024-3.273-2.001-4.685-.798-1.478-2.005-2.664-2.884-4.085a46.071 46.071 0 0 0-1.287-1.877c-1.098-1.49-2.531-2.67-3.785-4.017-1.427-1.367-3.206-2.3-4.597-3.71-.88-.71-1.957-1.105-2.946-1.63-1.644-.898-3.414-1.525-5.178-2.135-.958-.33-1.629-1.256-2.639-1.432-1.485-.388-2.876.537-4.363.475-1.553-.064-3.03.523-4.576.485-1.027.047-1.965.515-2.963.711-.95.187-1.774.708-2.66 1.064-2.422.774-4.662 2.009-7.104 2.728-1.565.26-2.867 1.23-4.4 1.578-.999.27-1.89.817-2.858 1.162a12.326 12.326 0 0 0-4.095 2.37c-.701.875-1.842.956-2.786 1.418-.948.453-2.017.567-2.945 1.073-1.51.805-3.081 1.487-4.598 2.276-1.337.882-2.78 1.62-3.98 2.697-.76.63-1.743.983-2.323 1.823-1.557 2-3.925 3.092-5.612 4.955-.799-1.308-1.702-2.55-2.52-3.846-1.59-2.085-3.634-3.742-5.63-5.417-1.905-1.922-4.323-3.215-6.78-4.286-2.478-1.432-5.237-2.216-7.935-3.102-1.39-.09-2.754-.481-4.16-.346-1.761-.116-3.484.356-5.24.263-.988.023-1.962.227-2.948.246-1.3.046-2.475.64-3.698 1.014.112-.15.213-.308.338-.441 1.551-.425 3.115-.885 4.735-.912.765-.01 1.64-.157 2.05-.895 1.54-2.496 3.273-4.856 4.894-7.291.977-1.41 2.555-2.192 3.656-3.479.745-.931 2.003-1.151 2.835-1.982.935-.913 2.307-1.139 3.225-2.074.94-.96 2.154-1.542 3.237-2.31 1.239-1.063 2.593-1.976 3.897-2.955 2.157-1.27 4.535-2.117 6.657-3.45 1.282-.704 2.585-1.361 3.807-2.167 1.895-1.202 4.126-1.717 6.003-2.953 1.348-.86 2.865-1.4 4.268-2.161 1.382-.746 2.955-.932 4.469-1.237 1.486-.3 2.998-.44 4.503-.596 1.629-.15 3.093-.981 4.707-1.202 1.533-.217 3.09-.314 4.604-.683h-.002zm-7.855 6.39c-1.01-.002-1.97.371-2.975.458-2.22.237-4.477.49-6.6 1.222-2.616 1.246-5.585 2.108-7.533 4.39-1.006.847-1.64 2.019-2.557 2.95-1.09 1.142-1.774 2.597-2.82 3.77-.397 1.985-1.759 3.524-2.567 5.327-.828 1.626-1.774 3.288-1.905 5.151-.146.996-.287 2.011-.122 3.018.193 1.18.206 2.47.985 3.449.701.916 1.077 2.114 2.105 2.738 1.874 1.562 4.46 1.478 6.741 1.227 1.086-.126 2.056-.666 3.118-.902 2.21-1.315 4.549-2.41 6.656-3.896 1.078-.849 2.121-1.742 3.24-2.535 1.373-.816 2.795-1.555 4.115-2.461 1.495-1.014 3.13-1.79 4.675-2.718 2.403-1.574 4.877-3.061 7.621-3.95 2.421-.706 4.704-1.83 7.16-2.428 1.636-.319 2.518-2.038 2.912-3.52-.054-2.395-1.132-4.724-2.888-6.342-1.441-1.787-3.705-2.46-5.594-3.615-1.834-.372-3.672-.745-5.543-.872-1.579-.397-3.22-.329-4.794-.738-1.136.164-2.283.238-3.428.28l-.002-.003z"/><path d="M63.974 90.462c2.284-.268 4.672-.278 6.833.613 1.334.572 2.79.755 4.13 1.305 1.754.705 3.596 1.22 5.248 2.167 1.376.895 2.895 1.624 4.008 2.875 2.79 2.487 5.74 4.964 7.533 8.326.27.56.811 1.04.76 1.714.109 1.035-.324 2.002-.46 3.01-.15 2.006-.861 3.918-1.115 5.91-.115 1.855-.295 3.702-.277 5.564-.039 1.031-.203 2.052-.275 3.08-.057.692.281 1.322.502 1.958.304 1.004.129 2.08.293 3.107.346 2.46.857 4.893 1.112 7.367.086 1.052.437 2.067.467 3.128-1.084-1.547-1.922-3.29-3.27-4.627-1.443-1.226-2.632-2.718-4.043-3.981-2.243-1.786-4.597-3.454-7.171-4.72-2.11-.73-3.844-2.228-5.933-2.977-1.107-.306-2.27-.264-3.384-.544-1.566-.407-3.201-.122-4.79-.37-2.466-.351-4.942.11-7.392.41.608-1.648.127-3.407.216-5.109.146-1.676-.799-3.181-.803-4.844-.016-1.477-.498-2.88-.789-4.312-.246-2.283-.67-4.566-.536-6.871.038-.734.35-1.406.625-2.071.451-1.053.546-2.238 1.133-3.236.75-1.287 1.191-2.726 1.984-3.987.485-.798.953-1.607 1.421-2.413-.314-.022-.625-.046-.938-.057l-.271-.011c1.717-.218 3.453-.297 5.182-.404zm-6.884 38.46c.75-.323 1.522.098 2.269.22-.827.107-1.752.02-2.445.576-.791.62-1.643 1.195-2.264 2.002-.266-.217-.523-.443-.779-.664.721-1.128 2.023-1.675 3.219-2.134zm13.87 11.767a3.75 3.75 0 0 1 1.692-1.685c1.707-.324 3.526.084 4.975 1.037.876.559 1.496 1.41 2.14 2.208-1.249-1.278-2.984-1.912-4.686-2.289-1.385.176-2.78.298-4.12.73zm13.41 19.223c.662.021 1.31.164 1.957.302.952.815 1.17 2.12 1.226 3.311a5.44 5.44 0 0 1-1.468 3.748c-.24-2.514-.46-5.117-1.716-7.361h.001z"/></g><path d="M43.328 21.204c1.079-.747 1.958-1.773 3.158-2.343l.38 1.121c-1.047.803-2.213 1.431-3.424 1.94-1.03.428-2.089.876-3.218.876.936-.72 2.084-1.034 3.105-1.594h-.001zm13.713 2.356c.898-1.39 1.869-2.742 3.053-3.903.047.948.033 1.898.117 2.843l-.214-.848c-.882.762-1.662 1.95-2.955 1.908h-.001zm54.836 29.908c1.383-.028 2.737-.345 4.118-.422 1.191.155 2.403-.356 3.57.04.895.277 1.817.446 2.714.71-1.516.371-3.074.468-4.612.685-1.617.222-3.084 1.053-4.714 1.205-1.507.154-3.023.296-4.511.596-1.517.306-3.093.493-4.477 1.24-1.406.762-2.925 1.303-4.277 2.166-1.878 1.238-4.113 1.754-6.01 2.96-1.225.806-2.532 1.465-3.813 2.17-2.127 1.336-4.51 2.185-6.67 3.459-1.307.98-2.662 1.895-3.904 2.96-1.085.768-2.3 1.351-3.24 2.314-.922.937-2.295 1.163-3.231 2.079-.836.832-2.097 1.052-2.84 1.986-1.105 1.29-2.685 2.073-3.663 3.486-1.625 2.44-3.361 4.806-4.903 7.306-.411.74-1.287.886-2.054.897-1.621.028-3.188.488-4.741.914.988-1.889 2.285-3.581 3.663-5.19 1.08-1.073 2.208-2.092 3.255-3.199 2.005-1.835 4.102-3.588 5.85-5.685 1.274-1.108 2.48-2.316 3.916-3.215.407-.321.949-.136 1.422-.162.113-.418.218-.837.321-1.254 2.283-1.194 4.52-2.475 6.822-3.639a129.61 129.61 0 0 1 9.812-5.295c2.206-1.396 4.737-2.107 7.06-3.27.472-.75 1.374-.937 2.072-1.399 1.28-.808 2.744-1.236 4.125-1.83 1.402-.206 2.564-1.091 3.94-1.388 1.695-.305 3.258-1.178 5.004-1.225h-.004zm17.615.694c1.375-.126 2.767.06 4.104.367 1.27.618 2.621 1.03 3.885 1.665 1.646.91 3.198 1.983 4.837 2.912 1.27.654 2.376 1.596 3.726 2.104a30.56 30.56 0 0 1 5.77 4.542c.614.526 1.29.978 1.852 1.563.725.777 1.69 1.311 2.275 2.222-1.149-.228-2.286-.583-3.313-1.156-.707-.518-1.133-1.314-1.753-1.922-.9-.988-2.13-1.55-3.167-2.358a14.39 14.39 0 0 0-2.4-1.519c-1.55-.753-2.607-2.222-4.17-2.963-1.49-.692-2.697-1.96-4.33-2.33-1.263-.29-2.447-.845-3.715-1.118-.742-.265-1.313-.85-2.026-1.174-.535-.264-1.152-.389-1.576-.834v-.001h.001zM58.606 90.949c.312.01.624.037.94.057-.47.807-.936 1.618-1.424 2.418-.794 1.265-1.236 2.707-1.987 3.997-.59.999-.682 2.186-1.135 3.24-.275.668-.59 1.34-.626 2.075-.136 2.311.29 4.6.537 6.887.291 1.435.774 2.84.79 4.321.004 1.667.953 3.175.805 4.854-.09 1.708.392 3.469-.217 5.121l-.03.106c-.28.093-.561.195-.839.296-.548 0-1.09.101-1.601.3-.065-2.111-.978-4.08-1.065-6.185-.266-1.771-1.219-3.351-1.395-5.143-.307-2.67-.955-5.322-.813-8.026.413-3.093.607-6.232 1.45-9.249a33.912 33.912 0 0 1 1.338-3.355c.285-.613 1.057-.619 1.607-.832 1.228-.264 2.428-.66 3.665-.882z" fill="#B3B39F" stroke="#B3B39F"/><path d="M41.592 24.135c.912-.242 1.942-.718 2.789-.03-1.71 1.314-3.906 1.73-5.634 3.026-.234-.415-.46-.834-.678-1.258 1.255-.421 2.231-1.414 3.523-1.737v-.001zm7.192 8.404c.577 1.653 1.66 3.043 2.79 4.348-.426.541-.878 1.063-1.363 1.555-.389-1.991-1.067-3.91-1.427-5.903zm97.253 51.255c1.732-.45 3.57-.273 5.27.217 1.267.744 2.737.97 4.043 1.626 1.62.623 2.746 2.05 4.305 2.786.673.3 1.172.858 1.674 1.385 1.114 1.202 2.362 2.268 3.644 3.282.62.473.998 1.173 1.435 1.807.79 1.2 1.646 2.36 2.46 3.547.88 1.265 1.943 2.41 2.638 3.798.54.993.82 2.095 1.283 3.122.841 1.822 1.347 3.775 1.85 5.713.448 1.73 1.299 3.36 1.434 5.166.11 1.304.705 2.504.833 3.806-.814-.746-1.428-1.681-1.849-2.7-.441-1.09-1.389-1.835-1.994-2.819l-.436-.25c-.409-.918-1.25-1.517-1.792-2.343-1.09-1.662-2.721-2.846-4.269-4.043-.756-.724-1.648-1.27-2.498-1.87-3.76-3.023-8.255-5.078-12.955-6.101-1.011-.203-1.964-.641-2.991-.765-4.21-.431-8.463-.316-12.658.22-1.792.138-3.241 1.34-4.954 1.77-1.845.88-3.549 2.07-5.492 2.74-2.32 1.187-4.515 2.611-6.857 3.76-1.2.583-2.265 1.415-3.488 1.956-.64.284-1.267.598-1.857.977-1.69 1.08-3.454 2.036-5.16 3.094-2.248 1.382-4.666 2.481-6.813 4.032-.98.71-2.073 1.272-2.954 2.12-.89.87-1.92 1.586-2.762 2.504-.94 1.025-2.255 1.68-2.945 2.932-.44-2.825-.272-5.719.34-8.503.47-2.707.89-5.428 1.699-8.058a1.37 1.37 0 0 1 .317-.538c1.68-1.956 3.861-3.392 5.508-5.383.333-.408.689-.8 1.061-1.172 1.02-.101 1.756-.861 2.586-1.377 2.949-1.959 6.055-3.716 9.394-4.91 1.52-.762 3.09-1.42 4.584-2.23 2.503-1.282 5.256-1.982 7.719-3.348 1.057-.325 2.008-.885 3-1.36 2.15-.71 4.332-1.371 6.345-2.43 1.969-.728 3.966-1.462 6.071-1.65 1.72-.42 3.514-.074 5.229-.51h.002zm-23.131 5.173c1.538-.349 2.845-1.32 4.416-1.58-.942.998-2.309 1.335-3.522 1.874-.975.424-1.98.783-2.974 1.157-1.64.676-3.161 1.665-4.899 2.085a12.376 12.376 0 0 1 4.11-2.374c.973-.344 1.867-.89 2.869-1.162zM95.976 150.9c.549.594.697 1.423 1.09 2.114.634 1.134 1.186 2.319 1.88 3.42 1.326 1.958 2.343 4.108 3.548 6.143.504.8.51 1.78.818 2.656.339 1.042.864 2.081.807 3.205-.89 1.942-3.224 2.123-5.066 2.358-1.32.089-2.688.501-3.986.085.49-2.364.416-4.803.945-7.157.297-2.574.306-5.169.295-7.754.175-1.701-.115-3.39-.329-5.07h-.002z" fill="#4E4D3F" stroke="#4E4D3F"/><path d="M157.223 25.013c.37-.112.493.51.135.594-.38.122-.508-.518-.135-.594z" stroke="#040202" fill="#040202" opacity=".28"/><path d="M80.625 55.87c.227-.223.538-.237.835-.215.13.304.266.604.415.902-1.57 1.276-3.488 1.988-5.216 3.005-.369-.062-.518-.41-.657-.711 1.667-.776 3.145-1.89 4.623-2.98v-.001zm4.838 3.378c1.02-.44 1.988-.995 2.864-1.693 1.545-.086 3.072.183 4.598.383 1.02-.039 2.064-.024 3.06-.3l-.28.392c-1.065.448-2.125.907-3.192 1.348-.58.145-1.16.312-1.718.536l-.099-.065-.54-.347c-.783.235-1.556.519-2.364.638-.653.108-1.221-.31-1.784-.57-1.362.895-2.645 1.91-4.002 2.814-1.403.994-2.952 1.77-4.247 2.919-1.243.952-2.475 2.164-4.117 2.245l.115-.628c.325-.582.969-.835 1.53-1.114 1.41-.563 2.544-1.625 3.902-2.294 1.2-.802 2.495-1.46 3.608-2.395.85-.678 1.878-1.105 2.668-1.868h-.002v-.001zm80.506 14.831c1.12-.242 2.28-.249 3.417-.13 1.693.456 3.366 1.004 5.053 1.495 1 .225 1.646 1.117 2.243 1.891a21.891 21.891 0 0 0-1.236-.002c-.526-.674-1.388-.555-2.129-.519-.485-1.25-2.282-1.246-2.99-.22-1.371-.089-2.748-.207-4.115-.026-1.154.147-2.406-.23-3.028-1.29.778-.223 1.579-.328 2.363-.514.152-.22.292-.449.42-.684h.002zm-112.04 52.587c.825-.25 1.662-.463 2.507-.636.173.266.52.5.454.862-.625.641-1.326 1.204-1.902 1.894-.882.482-1.722 1.033-2.47 1.713-.653.445-1.248.98-1.681 1.656-.799 1.19-1.989 2.067-2.655 3.356-.856 1.607-1.92 3.252-1.779 5.169.41.126.82.26 1.236.372l-.71-.079c-1.061-.239-2.14.042-3.206.105.7-1.491 1.943-2.673 2.498-4.234.921-.868 1.33-2.112 2.116-3.087 1.628-2.343 3.39-4.626 5.539-6.501l.053-.588v-.002z" fill="#D6D6C7" stroke="#D6D6C7"/><path d="M82.701 56.464c.655.648.936 1.559 1.531 2.253-.446.18-.86.43-1.227.74-1.228 1.035-2.595 1.89-3.962 2.722-.335-1.037-.996-1.89-1.765-2.64l.197-.096c1.731-1.007 3.653-1.713 5.226-2.979zm.131 5.776c1.36-.898 2.643-1.902 4.008-2.79.564.258 1.135.672 1.788.564.81-.117 1.584-.398 2.369-.631l.541.344c-1.355.698-2.696 1.422-3.988 2.23-.543.44-.975 1.035-1.632 1.316-.954.392-1.803.996-2.744 1.417-1.223.547-2.128 1.647-3.423 2.048-1.914.888-3.779 1.886-5.648 2.864.124-.959-.034-1.993.464-2.87l-.117.622c1.646-.08 2.88-1.282 4.125-2.224 1.298-1.14 2.85-1.907 4.255-2.892h.002v.002zm80.988 13.223c-.197-.277.174-.328.346-.448.625 1.051 1.879 1.425 3.035 1.28 1.369-.18 2.75-.063 4.123.024-.591 1.505-.562 3.26.18 4.704.583 1.17 1.347 2.436 2.652 2.878 1.06.327 2.15-.176 3.024-.756.574-.426 1.212-1.014 1.15-1.8.085-1.664-1.136-2.93-1.878-4.292.41-.006.823-.014 1.237.003 1.38.666 2.176 2.03 3.267 3.044 1.387 1.448 2.24 3.291 3.421 4.896 1.096 1.948 1.963 4.013 2.857 6.062.789 1.848 1.436 3.766 1.776 5.753a22.263 22.263 0 0 1 .92 8.47c-.566.165-.458.73-.392 1.18l.834.44c-.283.748-.563 1.5-.883 2.234-.812.836-1.884 1.323-2.835 1.97-1.819 1.25-3.971 2.248-6.229 1.99.1-1.706-.33-3.363-.974-4.928-.702-1.69-.873-3.54-1.603-5.216-.968-2.418-1.318-5.058-2.54-7.374-.688-1.73-1.152-3.55-1.928-5.248-.742-1.618-1.072-3.416-2.031-4.934-.745-1.11-1.362-2.308-2.222-3.333-.02-.347-.042-.691-.05-1.035-.578-.733-1.131-1.487-1.732-2.198-1.153-1.142-2.458-2.131-3.524-3.364v-.002h-.001zm14.34 12.278c-.166.402-.34.8-.524 1.194-.18 1.104-.06 2.211.236 3.282.217 1.565 1.195 2.863 2.126 4.082.731.943 2.034.876 3.103.837.909-.72 1.79-1.53 2.256-2.623-.4-1.554-1.206-2.943-1.976-4.331-.54-.911-1.399-1.62-2.434-1.865-.6-.952-1.855-1.082-2.788-.576zm5.59 13.761c-.578.194-.973.735-1.312 1.217-.917 1.577-1.218 3.563-.551 5.293.307 1.23 1.25 2.673 2.693 2.486 1.09.09 2.01-.604 2.85-1.206.992-.774.924-2.178.83-3.309-.232-.923.16-2.09-.707-2.762-1.108-.837-2.332-1.844-3.805-1.72h.001v.001zM57.127 125.206c.996-.053 1.965-.31 2.955-.43 1.445-.119 2.9-.045 4.349-.042 1.853.069 3.675.474 5.528.56 1.606.138 3.068.898 4.42 1.729 2.131 1.304 4.53 2.125 6.562 3.594a26.043 26.043 0 0 1 4.796 3.957c1.264 1.484 2.953 2.572 3.985 4.259 1.102 1.397 1.754 3.064 2.598 4.615a48.844 48.844 0 0 1 1.238 3.267c.546 1.754 1.025 3.546 1.148 5.387.076.554-.348.981-.647 1.4-.938 1.145-1.88 2.288-2.747 3.49-.822 1.162-1.835 2.175-2.623 3.364l-.39-.122c-.473-1.104-1.704-1.463-2.761-1.735-1.493-.078-2.967.526-4.117 1.457-1.277 1.266-1.296 3.148-1.661 4.793l-.294.663c-.849.262-1.729.371-2.588.576-1.844.59-3.8.798-5.731.722l-.17.043c-.023-1.282-.213-2.55-.32-3.823-.39-1.03-.469-2.13-.7-3.197-.417-1.351-.727-2.752-1.447-3.984a44.277 44.277 0 0 0-3.126-5.587c-.828-1.066-1.8-2.012-2.676-3.04-1.483-1.985-3.678-3.226-5.737-4.515-1.289-.77-2.777-1.05-4.155-1.601-1.422-.506-2.934-.6-4.416-.81-.417-.11-.828-.244-1.239-.37-.14-1.898.925-3.529 1.783-5.122.666-1.277 1.859-2.145 2.66-3.325.433-.668 1.03-1.199 1.683-1.642-.385.832-.085 1.785-.433 2.632l.477.26-.03.568c.745.938 1.665 1.735 2.756 2.234 1.678.985 3.688 1.505 5.616 1.107.626-.404 1.403-.685 1.752-1.4.39-.755.925-1.511.906-2.4a5.924 5.924 0 0 0-.6-2.776c-.774-1.038-2.068-1.441-3.208-1.923-1.545-.482-3.198-.263-4.763.002.578-.684 1.28-1.241 1.906-1.875.067-.36-.28-.592-.455-.856l-.084-.103v-.001zm13.588 13.457c-1.077.732-1.43 2.046-1.329 3.295.397 1.263.922 2.57 1.986 3.42.23.167.312.443.436.691.996.687 1.48 1.875 2.424 2.621.964.792 2.165 1.192 3.326 1.597.974.29 2.029.06 2.79-.61 1.132-.794 1.567-2.152 2.051-3.382.028-1.342.138-2.826-.665-3.988-.864-1.187-1.721-2.438-2.966-3.262-2.339-1.524-5.649-2.037-8.054-.384v.002z" fill="#C7C7B3" stroke="#C7C7B3"/><path d="M96.26 58c.424.077-.025.693-.26.36l.26-.36z" stroke="#221C1B" fill="#221C1B" opacity=".78"/><path d="M179.036 76.051c.273-.12.447-.028.523.27l-.224.085c-.296.02-.397-.098-.299-.355z" stroke="#190E08" fill="#190E08" opacity=".69"/><path d="M171.99 78.074c1.527 1.16 2.489 2.861 3.5 4.453-.495.182-1.095.552-1.597.195-1.598-.894-2.218-2.91-1.903-4.648zm8.016 17.226c-1.067-1.572-2.04-3.485-1.489-5.438.56.12 1.102.318 1.608.586l-.706.015c1.197 1.754 2.397 3.648 2.448 5.853-.65-.265-1.387-.464-1.861-1.018v.002zm3.542 14.511c-1.588-1.413-1.76-4.071-.36-5.669.948 1.285 1.54 2.931 1.153 4.535-.043.498-.495.792-.793 1.134zM55.091 133.895c.511-1.002 1.461-1.685 2.322-2.366 1.344-.338 2.755-.02 4.109.172.664.631.695 1.62.325 2.421-.2.923-1.037 1.653-1.973 1.7-1.105.093-2.155-.359-3.139-.812-.587-.298-1.249-.558-1.646-1.115h.002zm16.095 8.869c1.018-.561 2.248-.496 3.372-.455 2.29.294 3.867 2.146 5.431 3.665.002 1.384-.599 3.131-2.042 3.564-1.885-.13-3.595-1.268-4.674-2.805-.369-.591-.954-.966-1.597-1.19l-.08-.524c-.523-.552-1.43-1.764-.412-2.257l.002.002zm9.815 20.764c.184-.851.732-1.553 1.347-2.135 1.296 2.064 1.636 4.597 1.48 6.999-.454.398-.888.822-1.292 1.277-1.564.197-2.73-1.828-2.09-3.18.337-.957.25-1.996.555-2.961z" fill="#FC0101" stroke="#FC0101"/><path d="M173.325 78.1c.505.11 1.122.123 1.454.592.506.647.911 1.372 1.26 2.116-.982-.82-1.774-1.836-2.714-2.708zm5.076 11.616a3.44 3.44 0 0 1 .371-.604c1.176.67 2.296 1.54 2.897 2.792.445.987 1.17 1.845 1.437 2.91-.73-.78-.838-1.924-1.537-2.73-.534-.59-1.077-1.17-1.57-1.79a6.248 6.248 0 0 0-1.598-.58v.002zm6.243 13.95c1.7.702 1.82 2.869 1.295 4.393l-.353.164c-.004-.748.047-1.502-.06-2.243-.218-.798-.63-1.528-.882-2.314z" fill="#97967C" stroke="#97967C"/><path d="M178.555 108.438c.643 1.567 1.074 3.228.972 4.936 2.252.26 4.4-.738 6.216-1.992.947-.649 2.018-1.136 2.828-1.975-.197 1.21-1.237 1.983-1.69 3.078-1.133 2.477-2.999 4.495-4.751 6.53-.89.592-1.675 1.312-2.455 2.04-.065-1.157.086-2.32-.128-3.466-.298-1.686-.009-3.4-.18-5.095.03-1.408-.676-2.673-.81-4.056h-.002zm-85.705 38.61c1.1 2.057 1.31 4.46 1.412 6.754-.304 1.92-.192 3.864-.194 5.801.11 2.177-.542 4.289-.646 6.453-.064 1.2-.27 2.39-.502 3.568-.454.446-.841.96-1.3 1.401-.627.411-1.402.423-2.122.506-1.18.977-2.67 1.401-4.1 1.84-1.098.273-2.177.64-3.297.789-2.03.298-4.09.31-6.107.686-2.547.124-5.073.473-7.602.777.657-1.894 1.24-3.827 1.576-5.81.168-.89.011-1.845.35-2.696l.169-.043c1.927.075 3.878-.132 5.72-.724.856-.205 1.734-.314 2.581-.577l.293-.665c-.245.951-.485 1.946-.302 2.933.23 1.267 1.194 2.422 2.454 2.733 1.204.212 2.511.064 3.563-.592 3.277-1.715 4.581-6.36 2.806-9.594l.389.122c.789-1.19 1.799-2.204 2.619-3.368.864-1.206 1.805-2.35 2.74-3.498.299-.418.721-.847.647-1.401-.125-1.845-.602-3.638-1.146-5.395z" fill="#65655B" stroke="#65655B"/><path d="M176 120l.648.028c.04.656.09 1.317.174 1.972-.295-.658-.404-1.425-.822-2z" stroke="#090405" fill="#090405" opacity=".56"/><path d="M90.006 126.056c.065-1.02.218-2.033.254-3.056-.023 1.672.29 3.327.21 5-.203-.632-.518-1.256-.464-1.944z" stroke="#4B493B" fill="#4B493B"/></g></svg>
