<svg width="237" height="237" xmlns="http://www.w3.org/2000/svg"><g fill="none" fill-rule="evenodd"><rect fill="#F7DF1E" width="237" height="237" rx="36"/><path d="M158.683 184.68c4.768 7.802 10.972 13.537 21.943 13.537 9.217 0 15.104-4.617 15.104-10.995 0-7.644-6.049-10.351-16.194-14.798l-5.56-2.391c-16.052-6.853-26.715-15.438-26.715-33.588 0-16.718 12.711-29.445 32.576-29.445 14.142 0 24.31 4.933 31.637 17.848l-17.322 11.146c-3.813-6.853-7.928-9.553-14.315-9.553-6.515 0-10.645 4.142-10.645 9.553 0 6.687 4.134 9.394 13.677 13.536l5.56 2.387C207.33 160.04 218 168.32 218 186.936c0 20.07-15.732 31.064-36.86 31.064-20.657 0-34.003-9.865-40.533-22.796l18.076-10.524zm-78.576 1.932c3.494 6.213 6.672 11.465 14.315 11.465 7.308 0 11.918-2.865 11.918-14.007v-75.797h22.243v76.098c0 23.082-13.503 33.588-33.214 33.588-17.81 0-28.124-9.237-33.369-20.362l18.107-10.985z" fill="#000" fill-rule="nonzero"/></g></svg>
