<svg width="80" height="80" xmlns="http://www.w3.org/2000/svg"><g fill-rule="nonzero" fill="none"><path d="M2.136 79.669L.92 76.956s11.065-10.212 8.287-14.643c.637-5.356 127.842-122.695 9.326 8.826 0 0-4.544-1.492-7.812.62-3.264 2.013-8.585 7.91-8.585 7.91z" fill="#FFF"/><path d="M2.136 79.669L.92 76.956s11.065-10.212 8.287-14.643c.637-5.356 127.842-122.695 9.326 8.826 0 0-4.544-1.492-7.812.62-3.264 2.013-8.585 7.91-8.585 7.91z" fill="#A6A385"/><path d="M12.7 71.893s30.121 6.487 51.644-22.622C79.006 27.087 75.668 11.383 76.983 8.033c.535-2.795 2.374-6.752 2.374-6.752L28.16 52.208c-.053.05-17.436 13.765-15.46 19.686" fill="#FFF"/><path d="M12.7 71.893s30.121 6.487 51.644-22.622C79.006 27.087 75.668 11.383 76.983 8.033c.535-2.795 2.374-6.752 2.374-6.752L28.16 52.208c-.053.05-17.436 13.765-15.46 19.686" fill="#499D4A"/><path d="M9.016 66.64S4.58 38.272 26.466 19.076C48.303-.171 70.102 1.835 74.188 2.346c3.106-.092 3.774-.64 5.524-2.136-1.308 3.297-33.936 34.419-37.613 38.259-14.284 14.665-29.181 26.63-33.083 28.17z" fill="#FFF"/><path d="M9.016 66.64S4.58 38.272 26.466 19.076C48.303-.171 70.102 1.835 74.188 2.346c3.106-.092 3.774-.64 5.524-2.136-1.308 3.297-33.936 34.419-37.613 38.259-14.284 14.665-29.181 26.63-33.083 28.17z" fill="#58AA50"/></g></svg>
