<svg width="206" height="232" xmlns="http://www.w3.org/2000/svg"><g fill="#83CD29" fill-rule="evenodd"><path d="M103.001 0c-3.13 0-6.177.646-8.87 2.167L8.872 51.355C3.356 54.525 0 60.525 0 66.905v98.19c0 6.377 3.355 12.368 8.872 15.552l22.264 12.838c10.817 5.327 14.809 5.245 19.73 5.245 16.019 0 25.164-9.709 25.164-26.582V75.222c0-1.368-1.187-2.35-2.534-2.35h-10.68c-1.37 0-2.535.982-2.535 2.35v96.926c0 7.48-7.799 15-20.456 8.68l-23.171-13.562c-.818-.447-1.448-1.232-1.448-2.172V66.905c0-.933.623-1.88 1.448-2.35l85.08-49.005a2.514 2.514 0 0 1 2.535 0l85.077 49.006c.813.486 1.45 1.39 1.45 2.35v98.188c0 .94-.472 1.9-1.267 2.35l-85.26 49.008c-.731.433-1.738.433-2.535 0L79.83 203.43a2.279 2.279 0 0 0-2.172 0c-6.046 3.424-7.184 3.823-12.851 5.787-1.398.486-3.52 1.241.724 3.616l28.6 16.816a17.614 17.614 0 0 0 8.87 2.35c3.156 0 6.147-.776 8.87-2.35l85.26-49.003c5.517-3.207 8.869-9.175 8.869-15.553V66.905c0-6.38-3.352-12.363-8.87-15.55L111.87 2.169C109.2.646 106.132 0 103.001 0z"/><path d="M125.817 70c-24.386 0-38.909 10.299-38.909 27.425 0 18.577 14.415 23.682 37.82 25.98 27.997 2.72 30.18 6.8 30.18 12.268 0 9.486-7.621 13.53-25.637 13.53-22.631 0-27.606-5.605-29.271-16.778-.197-1.197-1.128-2.164-2.362-2.164H86.546c-1.37 0-2.546 1.168-2.546 2.526 0 14.3 7.84 31.213 45.27 31.213 27.1 0 42.73-10.556 42.73-29.048 0-18.333-12.628-23.254-38.91-26.702-26.56-3.487-29.09-5.194-29.09-11.366 0-5.096 2.144-11.908 21.817-11.908 17.568 0 24.066 3.76 26.727 15.515.234 1.106 1.215 1.985 2.362 1.985h11.092c.683 0 1.346-.414 1.819-.901.465-.522.79-1.107.727-1.805C166.828 79.523 153.22 70 125.817 70z"/></g></svg>
