<svg width="207" height="212" xmlns="http://www.w3.org/2000/svg"><g fill-rule="nonzero" fill="none"><path d="M206.452 126.993c-1.244-3.744-4.503-6.35-8.718-6.976-1.987-.295-4.263-.17-6.957.382-4.694.962-8.177 1.329-10.72 1.4 9.595-16.092 17.397-34.442 21.888-51.715 7.262-27.93 3.381-40.655-1.154-46.41C188.79 8.44 171.28.256 150.156.006c-11.27-.137-21.162 2.073-26.323 3.663-4.804-.842-9.97-1.313-15.392-1.4-10.161-.16-19.14 2.04-26.811 6.563-4.248-1.427-11.064-3.439-18.936-4.722-18.514-3.02-33.436-.667-44.351 6.993C5.126 20.377-1 36.49.133 58.994c.36 7.145 4.383 28.885 10.718 49.502 3.641 11.85 7.524 21.692 11.54 29.252 5.695 10.72 11.79 17.034 18.632 19.302 3.834 1.269 10.802 2.157 18.13-3.905.929 1.117 2.168 2.227 3.812 3.259 2.09 1.308 4.643 2.378 7.194 3.011 9.192 2.283 17.803 1.712 25.148-1.488.046 1.298.08 2.538.11 3.609.049 1.737.097 3.44.161 5.032.435 10.769 1.173 19.142 3.358 25 .12.322.281.813.452 1.334 1.09 3.316 2.913 8.867 7.55 13.214 4.803 4.503 10.612 5.884 15.933 5.884 2.668 0 5.214-.348 7.447-.823 7.96-1.695 17-4.276 23.539-13.526 6.182-8.744 9.188-21.914 9.732-42.666.07-.587.135-1.147.197-1.681l.13-1.097 1.457.128.375.024c8.107.368 18.02-1.34 24.108-4.15 4.81-2.217 20.226-10.302 16.596-21.216" fill="#000"/><path d="M192.585 129.685c-24.099 4.96-25.756-3.18-25.756-3.18 25.444-37.662 36.082-85.468 26.903-97.169-25.042-31.917-68.39-16.822-69.114-16.43l-.233.041c-4.761-.986-10.09-1.573-16.078-1.67-10.904-.178-19.176 2.851-25.453 7.6 0 0-77.33-31.779-73.732 39.966.765 15.263 21.93 115.488 47.175 85.215 9.228-11.07 18.144-20.43 18.144-20.43 4.427 2.935 9.728 4.432 15.286 3.894l.431-.365c-.134 1.374-.072 2.718.173 4.31-6.504 7.248-4.592 8.52-17.593 11.19-13.156 2.705-5.428 7.52-.382 8.779 6.118 1.525 20.27 3.686 29.831-9.666l-.38 1.523c2.547 2.037 4.336 13.243 4.036 23.403-.3 10.159-.5 17.134 1.507 22.582 2.01 5.448 4.01 17.706 21.101 14.054 14.28-3.053 21.681-10.964 22.711-24.161.73-9.382 2.384-7.994 2.488-16.382l1.327-3.97c1.529-12.718.243-16.821 9.04-14.913l2.14.188c6.474.293 14.95-1.04 19.925-3.346 10.71-4.958 17.064-13.238 6.502-11.063h.001" fill="#336791"/><path d="M86.938 65.67c-2.175-.314-4.145-.024-5.141.756-.56.438-.734.946-.78 1.296-.126.926.502 1.95.889 2.48 1.092 1.495 2.687 2.523 4.267 2.75.229.033.457.048.683.048 2.633 0 5.028-2.119 5.24-3.683.263-1.958-2.489-3.264-5.158-3.647m72.051.061c-.208-1.535-2.852-1.973-5.361-1.612-2.506.36-4.936 1.53-4.733 3.068.162 1.196 2.254 3.239 4.729 3.239.21 0 .42-.014.633-.045 1.652-.237 2.865-1.321 3.44-1.946.877-.952 1.385-2.014 1.292-2.704" fill="#FFF"/><path d="M200.788 129.005c-.92-2.763-3.877-3.652-8.792-2.643-14.592 2.994-19.817.92-21.533-.336 11.342-17.178 20.672-37.944 25.706-57.319 2.384-9.177 3.701-17.7 3.81-24.648.118-7.625-1.188-13.228-3.882-16.65-10.861-13.8-26.803-21.201-46.1-21.404-13.265-.149-24.474 3.227-26.647 4.176-4.575-1.131-9.564-1.826-14.994-1.915-9.959-.16-18.567 2.21-25.694 7.043-3.096-1.146-11.097-3.877-20.881-5.444-16.916-2.707-30.358-.656-39.95 6.1C10.385 24.029 5.1 38.44 6.125 58.8c.344 6.85 4.27 27.921 10.465 48.102 8.154 26.56 17.019 41.597 26.346 44.69 1.091.362 2.35.615 3.738.615 3.402 0 7.574-1.525 11.914-6.712a427.708 427.708 0 0 1 16.42-18.473c3.666 1.957 7.694 3.05 11.814 3.159.008.107.018.214.028.32a94.91 94.91 0 0 0-2.083 2.559c-2.854 3.602-3.448 4.352-12.636 6.233-2.614.537-9.555 1.959-9.657 6.797-.11 5.285 8.205 7.505 9.153 7.74 3.301.822 6.482 1.228 9.516 1.228 7.377 0 13.87-2.411 19.058-7.076-.16 18.844.63 37.412 2.906 43.069 1.864 4.631 6.417 15.95 20.8 15.949 2.11 0 4.433-.244 6.988-.789 15.01-3.199 21.528-9.795 24.05-24.336 1.349-7.772 3.664-26.329 4.754-36.283 2.298.713 5.257 1.04 8.456 1.038 6.671 0 14.37-1.409 19.197-3.637 5.424-2.504 15.21-8.649 13.436-13.988zm-35.745-67.264c-.05 2.938-.457 5.606-.888 8.39-.464 2.996-.944 6.092-1.065 9.851-.119 3.658.34 7.461.785 11.14.898 7.429 1.82 15.077-1.748 22.624a29.345 29.345 0 0 1-1.58-3.23c-.443-1.069-1.406-2.785-2.74-5.16-5.185-9.247-17.33-30.901-11.113-39.737 1.852-2.63 6.552-5.334 18.349-3.878zm-14.3-49.786c17.29.38 30.967 6.81 40.65 19.113 7.427 9.436-.751 52.372-24.426 89.414-.238-.301-.478-.601-.718-.9l-.3-.372c6.118-10.046 4.921-19.985 3.857-28.797-.438-3.616-.851-7.031-.746-10.24.109-3.4.56-6.317.998-9.137.538-3.475 1.085-7.072.934-11.31.113-.445.158-.97.099-1.594-.385-4.065-5.053-16.232-14.568-27.243-5.204-6.023-12.794-12.763-23.157-17.31 4.457-.918 10.553-1.774 17.377-1.624zM53.995 141.698c-4.782 5.716-8.084 4.62-9.17 4.261-7.075-2.346-15.284-17.214-22.522-40.79-6.263-20.4-9.923-40.914-10.214-46.667-.914-18.192 3.522-30.87 13.185-37.684 15.725-11.087 41.58-4.451 51.969-1.086-.15.147-.305.284-.452.433-17.049 17.118-16.644 46.363-16.602 48.151-.002.69.057 1.667.136 3.01.294 4.919.84 14.074-.619 24.442-1.355 9.634 1.632 19.064 8.194 25.872a29.33 29.33 0 0 0 2.121 1.988 436.766 436.766 0 0 0-16.026 18.07zm18.218-24.167c-5.29-5.487-7.691-13.12-6.592-20.941 1.54-10.952.972-20.49.667-25.615-.043-.718-.082-1.346-.103-1.842 2.49-2.195 14.032-8.343 22.262-6.468 3.756.855 6.045 3.398 6.996 7.771 4.924 22.644.652 32.082-2.781 39.667-.708 1.562-1.377 3.04-1.947 4.567l-.443 1.181c-1.12 2.986-2.162 5.763-2.808 8.4-5.623-.017-11.092-2.405-15.251-6.72zm.863 30.538c-1.642-.407-3.119-1.116-3.985-1.703.724-.338 2.011-.8 4.245-1.257 10.809-2.212 12.478-3.773 16.124-8.375.835-1.056 1.783-2.251 3.095-3.708l.001-.002c1.954-2.175 2.848-1.806 4.469-1.137 1.314.54 2.593 2.177 3.112 3.978.246.851.521 2.466-.38 3.723-7.616 10.6-18.712 10.464-26.681 8.481zm56.568 52.336c-13.224 2.817-17.905-3.891-20.99-11.56-1.992-4.95-2.971-27.274-2.277-51.928a2.954 2.954 0 0 0-.128-.943 12.382 12.382 0 0 0-.37-1.742c-1.032-3.587-3.549-6.588-6.568-7.832-1.2-.494-3.4-1.4-6.046-.727.564-2.311 1.543-4.921 2.604-7.747l.444-1.189c.501-1.34 1.13-2.728 1.795-4.197 3.592-7.936 8.513-18.804 3.173-43.358-2-9.197-8.68-13.688-18.806-12.645-6.07.624-11.624 3.06-14.394 4.456-.596.3-1.14.59-1.65.872.774-9.267 3.695-26.584 14.621-37.54 6.88-6.898 16.042-10.305 27.205-10.12 21.995.357 36.1 11.58 44.06 20.932 6.86 8.058 10.574 16.176 12.056 20.555-11.147-1.128-18.729 1.06-22.572 6.523-8.361 11.883 4.574 34.947 10.79 46.032 1.141 2.032 2.125 3.787 2.435 4.533 2.024 4.878 4.645 8.135 6.558 10.512.587.729 1.156 1.435 1.589 2.053-3.376.967-9.44 3.203-8.888 14.38-.446 5.608-3.615 31.864-5.226 41.141-2.126 12.256-6.662 16.82-19.415 19.54v-.001zm55.194-62.798c-3.453 1.593-9.23 2.788-14.719 3.045-6.062.282-9.148-.675-9.874-1.264-.34-6.965 2.267-7.692 5.026-8.463.434-.12.857-.239 1.265-.38.254.205.532.408.837.608 4.872 3.198 13.562 3.542 25.832 1.024l.134-.026c-1.655 1.538-4.487 3.602-8.501 5.456z" fill="#FFF"/></g></svg>
