<svg width="239" height="177" xmlns="http://www.w3.org/2000/svg"><g fill-rule="nonzero" fill="none"><path d="M169.71 138.597c-32.063 16.537-67.31 16.537-99.42 0-2.95-1.507-5.29-6.36-5.29-10.553v-10.79c0-4.24 2.387-6.266 5.29-4.758 32.063 16.537 67.31 16.537 99.42 0 2.95-1.508 5.29.565 5.29 4.759v10.789c0 4.193-2.34 9.046-5.29 10.553z" fill="#C1272D"/><path d="M200.667 45.717c-.467-8.122.42-15.363-3.175-21.582C188.62 8.819 166.255 0 120.965 0v.464h-.513.513V0c-43.89 0-68.169 8.958-77.04 24.274-3.595 6.22-3.081 13.414-3.548 21.536-.374 6.452-3.269 13.46-2.101 20.886 1.54 9.654 2.147 19.262 3.641 28.22 1.168 7.287 11.02 13.32 11.953 20.282 2.568 18.937 21.805 27.616 67.095 27.616V143h-.607.607v-.186c45.757 0 64.013-8.679 66.581-27.616.934-6.962 10.366-12.995 11.58-20.282 1.447-8.958 2.054-18.566 3.595-28.22 1.167-7.519-1.681-14.527-2.054-20.979z" fill="#EFCCA3"/><path d="M169.71 147.105a143.354 143.354 0 0 1-99.42 0c-2.95-1.078-5.29-4.547-5.29-7.594v-7.735c0-3.047 2.387-4.5 5.29-3.422a143.354 143.354 0 0 0 99.42 0c2.95-1.078 5.29.375 5.29 3.422v7.735c0 3-2.34 6.469-5.29 7.594z" fill="#ED1C24"/><circle fill="#C1272D" cx="119.5" cy="151.5" r="4.5"/><path d="M119.232 52c8.059.092 13.617 5.407 18.851 10.029 6.068 5.361 16.628 9.15 20.89 13.726 4.261 4.576 9.82 9.382 11.903 16.592 2.085 7.21 2.687 16.5 2.687 18.856 0 2.403 1.39 1.849 5.049 0C187.273 106.86 197 95.49 197 95.49c-1.158 7.256-10.514 13.171-11.44 20.104C183.011 134.45 164.623 143 119.277 143H119h.695" fill="#CCAC8D"/><path d="M149.863 38.577c1.768 5.832 7.586 25.472-3.863 18.8 0 0 4.747 2.8 7.865 13.39 3.072 10.543 10.844 11.896 10.844 11.896s12.473 2.38 21.734-5.505c7.912-6.718 9.168-18.707 5.817-27.758-3.35-9.05-9.354-11.85-18.15-13.715-8.75-1.866-26.155-3.546-24.247 2.892z" fill="#CCAC8D"/><circle fill="#000" cx="171.5" cy="59.5" r="16.5"/><circle fill="#FFF" cx="167.5" cy="52.5" r="4.5"/><path d="M146.784 59s15.063 10.177 23.21 20.353C178.143 89.53 178 91.433 178 91.433L172.22 94s-8.289-15.74-18.615-21.732C143.28 66.323 142 61.33 142 61.33l4.784-2.33z" fill="#EFCCA3"/><circle fill="#FF931E" cx="120" cy="151" r="4"/><circle fill="#FFB81E" cx="120" cy="152" r="1"/><circle fill="#FF931E" cx="119.5" cy="156.5" r="2.5"/><circle fill="#FFB81E" cx="120" cy="157" r="1"/><path d="M120 52c-8.129.092-13.969 5.407-19.248 10.029-6.12 5.361-16.912 9.15-21.21 13.726-4.298 4.576-9.997 9.382-12.1 16.592-2.102 7.21-2.756 16.5-2.756 18.856 0 2.403.42 2.588-5.092 0C50.764 107.09 41 95.49 41 95.49c1.168 7.256 10.605 13.171 11.54 20.104C55.108 134.45 73.655 143 119.345 143h.607" fill="#CCAC8D"/><path d="M163.319 84.411C154.319 73.236 139.957 63 120.093 63h-.186C100.043 63 85.68 73.236 76.68 84.411c-9.28 11.363-8.673 15.964-8.673 26.905 0 39.488 13.756 27.796 22.942 32.539 9.372 4.648 18.931 2.77 28.957 2.77h.186c10.026 0 19.585 1.737 28.957-2.911 9.186-4.743 22.942 7.184 22.942-32.305 0-10.94.606-15.635-8.673-26.998z" fill="#56332B"/><path d="M119.27 73s-1.04 18.381-3.27 22l4-1.19-.73-20.81zM121.73 73s1.04 18.381 3.27 22l-4-1.19.73-20.81z" fill="#442823"/><path d="M105.331 69.15c-1.94-4.24 4.829-11.15 15.67-11.15 10.793 0 17.61 6.91 15.67 11.15-1.894 4.33-8.806 5.758-15.67 5.85-6.865-.092-13.729-1.474-15.67-5.85z" fill="#56332B"/><path d="M121.965 71.889c-.048-.8 6.61-.893 10.035-3.197 0 0-7.189 2.21-8.732 1.364-1.593-.847-1.882-3.056-2.027-3.056-.145 0-.482 2.35-1.785 3.056-1.302.705-9.456-1.364-9.456-1.364s10.807 2.539 10.759 3.15c-.097.611-.097 2.397-.097 3.713 0 4.701.097 16.406.724 17.3 1.206 1.739.724-12.599.724-17.3-.049-1.269-.097-2.867-.145-3.666z" fill="#000"/><path d="M120.399 97.38c3.135 0 8.668 2.13 13.601 5.694C129.159 97.796 123.488 94 120.399 94c-3.32 0-10.281 4.12-15.399 10 5.394-4.167 11.987-6.62 15.399-6.62z" fill="#7F4A41"/><path d="M119.302 129.522c-7.123 0-13.966-2.201-20.251-3.806-1.35-.367-2.7.596-4.004.184C83.363 122.23 73.82 115.95 68 108.155c0 .596.047 1.238.047 1.88 0 38.561 13.733 27.19 22.904 31.867 9.357 4.539 18.9 2.75 28.91 2.75h.186c10.009 0 19.552 1.697 28.91-2.842 9.17-4.631 22.903 6.878 22.903-31.683 0-1.468.047-2.843.14-4.127-5.447 8.528-15.27 15.498-27.606 19.579-1.164.366-3.678-.597-4.888-.23-6.61 1.788-12.57 4.173-20.204 4.173z" fill="#442823"/><path d="M102.831 110s-4.75 14.583-1.505 21L97 129.007s3.339-14.73 5.831-19.007zm37.338 0s4.75 14.583 1.505 21l4.326-1.993s-3.339-14.73-5.831-19.007z" fill="#442823"/><path d="M90.137 38.577C88.37 44.41 82.551 64.05 94 57.377c0 0-4.747 2.8-7.865 13.39-3.118 10.59-10.844 11.896-10.844 11.896s-12.473 2.38-21.734-5.505C45.645 70.44 44.389 58.451 47.74 49.4c3.35-9.05 9.354-11.85 18.15-13.715 8.75-1.866 26.202-3.546 24.247 2.892z" fill="#CCAC8D"/><path d="M121 94.282c4.947 0 20.673 10.577 20.953 23.718 0-.229.047-.458.047-.641C142 103.897 129.26 93 121 93s-21 10.897-21 24.359c0 .229.047.458.047.641.28-13.187 15.96-23.718 20.953-23.718z" fill="#000"/><ellipse fill="#331712" transform="rotate(-14.465 124.5 65.5)" cx="124.5" cy="65.5" rx="1.5" ry="2.5"/><ellipse fill="#331712" transform="rotate(17.235 115.5 65.5)" cx="115.5" cy="65.5" rx="1.5" ry="2.5"/><circle fill="#000" cx="68.5" cy="59.5" r="16.5"/><circle fill="#FFF" cx="74.5" cy="52.5" r="4.5"/><path d="M126 60.05c0-.137-4.278 1.814-5.5 1.95-1.222-.181-5.5-2.087-5.5-1.95 0-.091 3.573-.046 5.5.045 1.927-.09 5.547-.09 5.5-.046z" fill="#7F4A41"/><path d="M93.216 59s-15.063 10.177-23.21 20.353C61.857 89.53 62 91.433 62 91.433L67.78 94s8.289-15.74 18.615-21.732C96.72 66.276 98 61.33 98 61.33L93.216 59z" fill="#EFCCA3"/><path d="M61.264 28.623S56.31 42.383 45 48.213c.047 0 17.479-2.053 16.264-19.59zm117.865 0s4.954 13.76 16.263 19.59c0 0-17.478-2.053-16.263-19.59zm-32.2 25.793s-10.89-11.614-25.751-11.894v-.047c-.094 0 .093 0 0 0v.047c-14.488.28-25.798 11.894-25.798 11.894 12.852-9.002 24.863-8.769 25.798-8.722 0 0-.047 0 0 0 1.355-.094 12.898-.28 25.75 8.722zm-12.9-24.347s-5.467-7.882-12.898-8.069c-.047 0 .047 0 0 0-6.543.187-12.899 8.069-12.899 8.069 6.45-6.11 12.899-5.97 12.899-5.924 1.402-.046 6.45-.186 12.899 5.924zM69.583 87.438s-8.832 4.337-15.095 1.725h.28c-6.542-3.218-8.599-12.64-8.599-12.64s5.281 16.558 23.414 10.915zm102.49 0s8.833 4.337 15.095 1.725h-.047.842c6.542-3.218 8.038-12.64 8.038-12.64s-5.795 16.558-23.928 10.915z" fill="#CCAC8D"/><path d="M80.027 27.808c4.908-1.024 12.855-1.21 19.213 1.024 8.087 2.793 1.589 13.033 3.225 13.592 1.636.559 3.833-7.075 18.886-6.377 15.052.698 16.875 7.355 18.932 6.377 2.057-.977-2.01-18.712 20.615-14.616 0 0-23.747-6.33-22.625 10.8 0 0-13.557-10.52-32.723-1.071.047 0 5.002-15.966-25.523-9.729zm82.881.047c.28.046.561.14.842.186 0 0-.28-.093-.842-.186zm-.14-.047c.047 0 .093 0 .14.047-.047-.047-.093-.047-.14-.047zM73.529 5S53.335 30.275 50.296 40.05c-3.038 9.775-5.189 50.225-7.853 55.95L33 56.249l17.25-41.52L73.53 5zm94.942 0s20.194 25.275 23.233 35.05c3.038 9.775 5.189 50.225 7.853 55.95L209 56.249l-17.25-41.52L168.47 5z" fill="#CCAC8D"/><path d="M166.057 4.74s21.773 18.14 28.061 39.084c6.288 20.944 3.708 46.377 8.635 49.65 6.945 4.581 14.828-22.16 17.456-25.06 4.083-4.44 17.88-15.894 18.77-17.951.892-2.057-27.78-33.24-40.403-39.411-14.97-7.293-33.74-7.948-32.52-6.312z" fill="#56332B"/><path d="M185 16s26.06 32.527 25.585 73L221 68.183S211.87 41.557 185 16z" fill="#442823"/><path d="M72.943 4.74S51.17 22.88 44.882 43.824c-6.288 20.944-3.708 46.377-8.635 49.65-6.945 4.581-14.828-22.16-17.456-25.06C14.708 63.975.91 52.52.02 50.464c-.892-2.057 27.78-33.24 40.403-39.411 14.97-7.293 33.74-7.948 32.52-6.312z" fill="#56332B"/><path d="M54 16S27.94 48.527 28.415 89L18 68.183S27.13 41.557 54 16z" fill="#442823"/><path d="M40 89.69s1.78 10.153 4.918 13.334c3.138 3.181.984-2.433.984-2.433s-3.092-1.684-2.576-14.643C43.84 72.942 40 89.69 40 89.69zm160 0s-1.78 10.153-4.918 13.334c-3.138 3.181-.984-2.433-.984-2.433s3.092-1.684 2.576-14.643C196.16 72.988 200 89.69 200 89.69z" fill="#CCAC8D"/><path d="M133 166.982c1.481-.757 2.58-2.127 2.915-3.83.525-2.93-1.434-5.719-4.396-6.239a5.422 5.422 0 0 0-6.116 3.687c-3.584-1.04-7.31-1.654-11.038-1.938.144-2.647-1.72-5.058-4.444-5.578-2.962-.52-5.781 1.418-6.307 4.35-.334 1.748.24 3.403 1.386 4.584-1.481.757-2.58 2.127-2.915 3.83-.525 2.93 1.434 5.719 4.396 6.239 2.676.473 5.208-1.087 6.068-3.498a59.182 59.182 0 0 0 11.086 1.938c-.048 2.6 1.816 4.916 4.444 5.389 2.962.52 5.781-1.418 6.307-4.35.286-1.7-.287-3.355-1.386-4.584z" fill="#FFB81E"/><path d="M128.54 177c-.334 0-.715-.047-1.049-.094a5.937 5.937 0 0 1-4.908-5.422 67.871 67.871 0 0 1-10.197-1.791c-1.096 2.451-3.765 3.866-6.48 3.394-3.241-.566-5.386-3.63-4.814-6.836a5.714 5.714 0 0 1 2.621-3.865 5.735 5.735 0 0 1-1.096-4.526c.286-1.556 1.144-2.876 2.478-3.819a5.916 5.916 0 0 1 4.432-.942c2.763.47 4.812 2.828 4.908 5.562 3.43.283 6.814.896 10.102 1.792a5.89 5.89 0 0 1 6.528-3.536c1.573.283 2.907 1.132 3.86 2.452.905 1.272 1.239 2.875 1 4.384a5.714 5.714 0 0 1-2.62 3.866 5.735 5.735 0 0 1 1.096 4.525c-.286 1.556-1.144 2.876-2.478 3.819-1 .66-2.145 1.037-3.383 1.037zm-16.821-8.627l.476.141c3.574.99 7.243 1.603 10.96 1.933l.524.047v.519c-.048 2.357 1.62 4.384 4.003 4.808a4.695 4.695 0 0 0 3.621-.801c1.049-.754 1.763-1.839 2.002-3.111a4.633 4.633 0 0 0-1.24-4.102l-.523-.518.667-.33c1.382-.708 2.335-1.933 2.62-3.442a4.568 4.568 0 0 0-.81-3.583 4.988 4.988 0 0 0-3.145-1.98c-2.382-.424-4.765.99-5.48 3.3l-.142.519-.525-.142a56.414 56.414 0 0 0-10.864-1.932l-.524-.048.047-.518c.143-2.404-1.572-4.573-4.002-4.997a4.695 4.695 0 0 0-3.622.801c-1.048.754-1.763 1.839-2.001 3.112A4.633 4.633 0 0 0 105 162.15l.524.519-.667.33c-1.382.707-2.335 1.932-2.621 3.441-.477 2.593 1.286 5.091 3.907 5.563a4.84 4.84 0 0 0 5.433-3.159l.143-.471z" fill="#FF931E"/><circle fill="#FC6" cx="110" cy="157" r="2"/><circle fill="#FC6" cx="129" cy="171" r="2"/><circle fill="#FF931E" cx="118" cy="165" r="1"/><circle fill="#FF931E" cx="109" cy="163" r="1"/><circle fill="#FF931E" cx="128" cy="166" r="1"/><g transform="translate(88 80)" fill="#442823"><ellipse cx="13.172" cy="1.83" rx="1.453" ry="1.493"/><ellipse cx="4.547" cy="11.219" rx="1.453" ry="1.493"/><ellipse cx="1.641" cy="1.83" rx="1.453" ry="1.493"/></g><g transform="translate(136 80)" fill="#442823"><ellipse cx="1.828" cy="1.83" rx="1.453" ry="1.493"/><ellipse cx="10.453" cy="11.219" rx="1.453" ry="1.493"/><ellipse cx="13.359" cy="1.83" rx="1.453" ry="1.493"/></g></g></svg>
