<svg width="329" height="247" xmlns="http://www.w3.org/2000/svg"><path d="M283.096 142.085c-11.446.06-21.394 2.818-29.724 6.894-3.056-6.055-6.113-11.45-6.652-15.407-.6-4.616-1.318-7.434-.6-12.95.72-5.515 3.956-13.369 3.896-13.968-.06-.6-.72-3.418-7.311-3.478-6.592-.06-12.285 1.26-12.944 2.998-.66 1.739-1.918 5.695-2.757 9.772-1.139 5.995-13.184 27.398-20.076 38.609-2.217-4.377-4.135-8.213-4.554-11.271-.6-4.616-1.318-7.434-.6-12.95.72-5.515 3.956-13.369 3.896-13.968-.06-.6-.72-3.417-7.311-3.477-6.592-.06-12.285 1.259-12.944 2.997-.66 1.739-1.379 5.815-2.757 9.772-1.378 3.957-17.379 39.688-21.574 48.92a276.117 276.117 0 0 1-5.333 11.092c-1.319 2.578-.06.18-.24.48a151.444 151.444 0 0 1-1.798 3.417v.06c-.899 1.618-1.858 3.117-2.337 3.117-.36 0-1.019-4.317.12-10.192 2.397-12.41 8.09-31.714 8.03-32.374 0-.36 1.079-3.717-3.715-5.455-4.675-1.739-6.353 1.139-6.772 1.139-.42 0-.72 1.02-.72 1.02s5.214-21.703-9.947-21.703c-9.469 0-22.533 10.371-29.005 19.724a8056.61 8056.61 0 0 0-22.053 12.05c-3.536 1.978-7.191 3.957-10.607 5.815-.24-.24-.48-.54-.72-.78-18.337-19.603-52.256-33.452-50.818-59.77.54-9.593 3.836-34.773 65.141-65.348 50.459-24.88 90.61-17.985 97.562-2.698 9.947 21.823-21.514 62.35-73.65 68.225-19.897 2.218-30.324-5.455-32.96-8.333-2.757-2.998-3.177-3.178-4.196-2.578-1.678.9-.599 3.597 0 5.156 1.558 4.076 7.97 11.27 18.817 14.808 9.589 3.117 32.9 4.856 61.126-6.055 31.582-12.23 56.272-46.223 49.02-74.7C198.78 1.8 150.838-7.734 105.473 8.393c-26.967 9.592-56.212 24.7-77.246 44.364C3.236 76.138-.72 96.462.899 104.975c5.813 30.216 47.462 49.88 64.122 64.448-.839.48-1.618.9-2.277 1.259-8.33 4.136-40.092 20.743-48.002 38.309-8.989 19.904 1.438 34.172 8.33 36.09 21.394 5.936 43.387-4.736 55.193-22.361 11.805-17.626 10.367-40.528 4.914-51.019-.06-.12-.12-.24-.24-.36 2.158-1.259 4.375-2.578 6.532-3.837a318.599 318.599 0 0 1 12.046-6.774c-2.038 5.575-3.536 12.23-4.255 21.822-.9 11.271 3.715 25.9 9.768 31.655 2.697 2.518 5.873 2.577 7.91 2.577 7.072 0 10.248-5.875 13.783-12.83 4.315-8.512 8.21-18.404 8.21-18.404s-4.854 26.738 8.33 26.738c4.795 0 9.649-6.235 11.806-9.412v.06s.12-.18.36-.6c.479-.78.779-1.259.779-1.259v-.12c1.917-3.357 6.232-10.97 12.644-23.62 8.27-16.307 16.24-36.69 16.24-36.69s.72 4.975 3.177 13.248c1.438 4.856 4.434 10.192 6.831 15.348-1.917 2.698-3.116 4.197-3.116 4.197l.06.06c-1.558 2.038-3.236 4.256-5.094 6.414-6.532 7.794-14.322 16.727-15.401 19.305-1.258 3.057-.959 5.275 1.438 7.074 1.738 1.319 4.854 1.499 8.03 1.319 5.873-.42 10.008-1.859 12.046-2.758 3.176-1.139 6.891-2.878 10.367-5.455 6.412-4.737 10.308-11.511 9.948-20.444-.18-4.916-1.798-9.832-3.775-14.448.599-.84 1.138-1.679 1.738-2.518 10.127-14.808 17.978-31.055 17.978-31.055s.719 4.976 3.176 13.25c1.198 4.196 3.655 8.752 5.813 13.189-9.529 7.733-15.401 16.726-17.499 22.601-3.775 10.911-.839 15.827 4.734 16.967 2.517.54 6.113-.66 8.75-1.799 3.356-1.08 7.31-2.938 11.086-5.695 6.412-4.737 12.585-11.331 12.225-20.264-.18-4.077-1.258-8.093-2.756-11.99 8.09-3.358 18.517-5.216 31.821-3.657 28.525 3.357 34.159 21.163 33.08 28.656-1.079 7.494-7.072 11.571-9.05 12.83-1.977 1.26-2.636 1.679-2.456 2.578.24 1.319 1.198 1.259 2.876 1.02 2.337-.42 14.982-6.056 15.521-19.845.9-17.625-15.88-36.87-45.544-36.69zm-220.053 74.22c-9.468 10.312-22.652 14.208-28.345 10.911-6.113-3.537-3.716-18.765 7.91-29.676 7.072-6.655 16.18-12.83 22.233-16.607 1.378-.839 3.416-2.038 5.873-3.537.42-.24.66-.36.66-.36l1.437-.899c4.255 15.588.18 29.317-9.768 40.168zm68.917-46.882c-3.296 8.033-10.188 28.597-14.383 27.458-3.596-.96-5.813-16.547-.72-31.955 2.578-7.733 8.031-16.966 11.207-20.563 5.154-5.755 10.847-7.674 12.225-5.336 1.738 3.058-6.292 25.36-8.33 30.396zm56.87 27.218c-1.378.72-2.696 1.199-3.296.84-.42-.24.6-1.2.6-1.2s7.131-7.674 9.948-11.15c1.618-2.04 3.535-4.437 5.573-7.135v.78c0 9.172-8.87 15.347-12.825 17.865zm43.867-10.012c-1.019-.72-.839-3.118 2.577-10.612 1.318-2.937 4.435-7.853 9.768-12.59.6 1.92 1.019 3.778.959 5.516-.06 11.57-8.33 15.887-13.304 17.686z" fill="#CD6799" fill-rule="nonzero"/></svg>
