<svg width="12" height="19" xmlns="http://www.w3.org/2000/svg" data-v-28fe5ab7=""><path d="M11.4 5.303a2.148 2.148 0 0 0-2.144-2.144 2.166 2.166 0 0 0-2.143 2.144c0 .841.488 1.547 1.166 1.927-.325 1.546-1.6 2.252-3.392 3.066-.434.19-.868.407-1.275.624V4.597a2.164 2.164 0 0 0 1.275-1.953A2.148 2.148 0 0 0 2.744.5 2.148 2.148 0 0 0 .6 2.644a2.12 2.12 0 0 0 1.275 1.953v9.607-1.629 2.09A2.164 2.164 0 0 0 .6 16.619c0 1.194.977 2.143 2.144 2.143a2.148 2.148 0 0 0 2.143-2.143 2.12 2.12 0 0 0-1.275-1.954v-1.276c0-.542.76-.922 2.008-1.492 1.737-.787 4.016-1.845 4.45-4.586a2.146 2.146 0 0 0 1.33-2.008zM2.744 1.585a1.06 1.06 0 0 1 1.058 1.059 1.06 1.06 0 0 1-1.058 1.058 1.06 1.06 0 0 1-1.059-1.058c0-.57.462-1.059 1.059-1.059zm0 16.092a1.06 1.06 0 0 1-1.059-1.058 1.06 1.06 0 0 1 1.059-1.059 1.06 1.06 0 0 1 1.058 1.059 1.06 1.06 0 0 1-1.058 1.058zM9.256 6.388A1.06 1.06 0 0 1 8.198 5.33a1.06 1.06 0 0 1 1.058-1.058c.57 0 1.059.488 1.059 1.058a1.06 1.06 0 0 1-1.059 1.058z" fill="#fff" fill-rule="nonzero"></path></svg>