<svg width="346" height="213" xmlns="http://www.w3.org/2000/svg"><g fill="#333" fill-rule="nonzero"><path d="M53.325 165.338c8.975-10.707 10.03-21.765 3.08-42.302-4.4-12.989-11.702-22.994-6.335-31.068 5.719-8.601 17.86-.264 7.742 11.233l2.024 1.405c12.142 1.404 18.125-15.183 9.062-19.923-23.931-12.462-44.872 11.497-35.633 39.23 3.959 11.761 9.502 24.223 5.015 34.14-3.872 8.514-11.35 13.516-16.365 13.692-10.47.526-3.52-23.433 8.534-29.401 1.056-.527 2.552-1.229 1.144-2.984-14.87-1.667-23.58 5.178-28.595 14.744-14.606 27.821 27.715 38.09 50.327 11.234zM314.64 83.542c3.431 8.426 8.622 16.763 5.543 24.135-2.552 6.32-5.895 8.952-9.59 9.567-5.192.877-3.784-15.359 5.103-20.186.792-.439 1.935-2.545.88-3.774-11.263-.614-17.597 4.74-21.029 11.848-9.942 20.8 22.524 26.505 38.45 6.056 6.334-8.162 6.598-16.236.527-30.893-3.87-9.303-9.766-16.236-6.07-22.38 3.959-6.494 13.461-.877 6.334 7.811l1.584.878c9.239.527 13.022-11.76 5.983-14.832-18.565-7.899-35.898 12.024-27.715 31.77z"/><path d="M197.237 61.16c-6.426-5.113-24.47 3.439-29.576 16.134-6.426 16.134-15.933 39.674-25.263 49.989-9.859 10.844-10.827 2.468-9.859-3.791 2.289-14.724 16.637-48.843 24.47-58.452-2.904-4.32-21.917-3.703-35.12 16.839-4.93 7.758-16.197 33.59-28.696 53.955-2.73 4.409-6.162 1.323-3.521-8.992 2.993-11.902 11.795-44.61 23.15-70.354 29.752-5.907 61.352-10.05 85.559-10.139 3.257-.882 5.457-3.791 0-3.967-20.862-.706-52.198 1.763-81.51 5.466 5.634-11.285 11.707-20.278 17.869-24.069-6.69-4.232-20.246-2.556-27.992 8.905-3.433 5.113-6.866 11.285-10.122 17.985-21.478 3.35-39.875 7.141-49.206 10.668-9.682 3.703-8.626 15.428-2.728 13.224 12.235-4.584 28.783-9.345 47.18-13.577-11.707 26.449-20.861 57.659-23.062 70.354-5.457 30.857 13.644 30.68 22.974 18.514 10.123-13.312 31.249-60.127 34.506-65.064.968-1.675 2.288-.793 1.584.705-23.59 47.168-21.566 65.417-2.465 61.362 8.627-1.852 23.503-16.663 27.376-24.333.792-1.852 2.464-1.675 2.112-.882-14.964 38.88-33.977 70.354-46.74 80.228-11.62 8.905-20.246-10.403 20.861-38.086 6.074-4.144 3.257-9.786-3.609-7.846-21.213 3.35-81.95 22.657-108.621 41.172-2.025 1.41-3.873 2.556-3.785 5.466.088 1.675 2.993 1.058 4.401.176 34.506-20.718 62.761-28.83 95.154-35.618.44.177.968.265 1.408.088 1.497-.352 1.409.441.44 1.058-2.2 1.235-4.4 2.38-4.929 2.557-21.83 8.552-35.033 27.419-30.368 37.029 3.96 8.287 25.35 5.29 35.473-.177 24.823-13.489 42.868-39.938 55.191-76.437 10.74-32.356 24.295-69.032 27.464-70.09zm144.27 74.674c-40.402-5.29-127.546 1.764-166.012 11.99-11.443 2.998-8.274 9.081-2.465 7.935.088 0 2.553-.617 2.64-.617 31.601-6.171 108.27-11.55 152.986-2.997 5.37.97 21.478-15.164 12.852-16.31zm-133.003-4.76c11.267-5.643 27.991-40.555 38.994-59.687.792-1.41 2.2-.264 1.409.706-27.816 47.96-16.02 53.515-5.018 52.81 14.7-.882 28.256-22.042 31.249-26.802 1.232-1.852 1.936-.353 1.232.97-.704 2.204-3.257 6.083-5.633 11.373-3.345 7.493.176 10.403 3.08 11.725 4.578 2.204 17.077.794 19.013-6.877-12.499-.264 17.43-59.333 20.51-62.948-8.362-4.849-21.302.44-27.2 12.078-12.587 24.95-23.15 45.052-29.751 45.404-12.852.706 14.788-55.63 19.277-57.394-2.729-3.967-20.246-2.292-30.016 12.872-3.521 5.466-24.999 43.553-30.28 49.812-9.33 11.109-10.035 1.587-7.394-9.521.88-3.791 2.376-8.64 4.313-14.018 6.161-13.93 12.763-18.338 16.812-22.835 27.2-30.24 42.78-54.749 36.618-64.359-5.457-8.551-23.678-4.76-35.385 12.872-21.566 32.356-41.46 76.702-44.012 96.98-2.465 20.277 12.235 21.776 22.182 16.839zm11.443-59.334c.968-2.204 1.584-2.821 3.257-6.524 9.682-21.336 21.83-43.817 30.192-54.308 5.193-5.467 12.5 1.94-.704 22.217-7.746 11.99-16.549 23.01-26.143 32.708v.088c-2.465 2.733-4.666 5.025-5.634 6.348-.704.882-1.496.705-.968-.529z"/></g></svg>
