<svg width="237" height="237" xmlns="http://www.w3.org/2000/svg"><g fill="none" fill-rule="evenodd"><rect fill="#006FBA" width="237" height="237" rx="36"/><path d="M98.304 216H76.922v-84.536H47.398v-17.63h80.5v17.63H98.305V216zm37.595-29.1h20.603c.992 8.426 9.77 13.949 21.1 13.949 11.398 0 19.186-5.452 19.186-12.957 0-6.655-4.885-10.337-17.205-13.098l-13.31-2.903c-18.833-4.036-28.108-13.594-28.108-28.533 0-18.833 16.284-31.294 39.082-31.294 23.79 0 38.728 12.249 39.082 30.728h-20.037c-.708-8.638-8.283-13.877-18.974-13.877-10.55 0-17.63 5.027-17.63 12.603 0 6.3 4.957 9.84 16.71 12.531l12.39 2.62c20.461 4.39 29.382 13.169 29.382 28.745 0 19.824-16.072 32.356-41.419 32.356-24.567 0-40.214-11.682-40.852-30.87z" fill="#FFF"/></g></svg>
