<svg width="208" height="208" viewBox="0 0 208 208" version="1.1" xmlns="http://www.w3.org/2000/svg">
  <g fill-rule="nonzero" stroke="none" stroke-width="1" fill="none">
    <path d="M57.7777778 208h92.4444442C182.132889 208 208 182.132889 208 150.222222V57.7777778C208 25.8671111 182.132889 0 150.222222 0H57.7777778C25.8671111 0 0 25.8671111 0 57.7777778v92.4444442C0 182.132889 25.8671111 208 57.7777778 208z" fill="#ECEFF1"/>
    <path d="M43.6048889 73.5742222c-.0859382 2.3742134-2.0355651 4.2545474-4.4113333 4.2545474-2.3757683 0-4.3253952-1.880334-4.4113334-4.2545474 0-2.4151111 1.9817778-4.3968889 4.3968889-4.3968889 2.4382222 0 4.4257778 1.9817778 4.4257778 4.3968889z" fill="#FFC107"/>
    <path d="M57.6622222 91.3408889l8.3546667-3.5244445c3.9288889-7.0431111 10.608-11.128 19.2515555-11.128 1.9644445 0 3.8133334.2484445 5.5466667.6586667l7.9502222-3.3395555c-4.1999661-2.054189-8.8217325-3.0988348-13.4968889-3.0506667-13.8088888 0-23.6542222 7.5862222-27.6062222 20.384zM42.1604444 97.9044444v-9.0711111H36.244V100.412z" fill="#FF5722"/>
    <path fill="#F44336" d="M42.1604444 114.018667V97.9044444L36.244 100.412v16.091111zM62.0648889 104.855111c0-6.7484443 1.4213333-12.503111 3.952-17.0386666l-8.3546667 3.5244445c-1.2133333 4.0386667-1.9182222 8.528-1.9182222 13.5200001 0 1.149778.1617778 2.207111.2311111 3.316444l6.136-2.6c0-.248444-.0462222-.473777-.0462222-.722222zM141.104889 72.2222222c-1.623556.4968889-3.12 1.1266667-4.472 1.8951111l4.472-1.8951111zM98.7653333 74.0075556l-7.9444444 3.3395555c5.9337778 1.352 10.5617781 4.9862222 13.5835551 10.3826667l5.916445-2.5075556c-2.56995-4.865435-6.61537-8.7915145-11.5555557-11.2146666z"/>
    <path fill="#E91E63" d="M42.1604444 130.115556v-16.096889L36.244 116.503111v16.12zM141.104889 72.2222222l-4.472 1.8951111c-5.685333 3.1604445-9.117333 8.4413334-9.117333 14.8951111 0 1.7622223.271555 3.2933334.676 4.7608889l5.962666-2.5017777c-.212682-.795231-.319529-1.6150438-.317778-2.4382223 0-7.0893333 6.453778-12.2315555 15.796445-12.2315555 4.581778 0 8.464444 1.2422222 11.307111 3.3626666l6.049333-2.5711111c-3.992444-3.952-10.018666-6.4364444-17.171555-6.4364444-3.160445 0-6.095556.4506667-8.712889 1.2653333zM62.1111111 105.577333l-6.1417778 2.6C56.316 113.724 57.4831111 118.646667 59.4244444 122.824l5.8008889-2.438222c-1.9413333-4.131111-3.0217777-9.094222-3.1142222-14.808445zM110.320889 85.2222222l-5.916445 2.5075556c2.195556 3.9288889 3.478223 8.84 3.796 14.4848892l6.136-2.5711114c-.543111-5.4888889-1.848888-10.3595556-4.015555-14.4213334z"/>
    <path d="M113.302222 116.191111c.832-3.478222 1.398222-7.222222 1.398222-11.336 0-1.825778-.208-3.518667-.364-5.2346666l-6.136 2.5999996c.040445.878223.173334 1.710223.173334 2.634667 0 5.604445-1.034222 10.452-2.773334 14.583111l7.701778-3.247111zM65.2311111 120.385778L59.4244444 122.824c2.3688889 5.078667 5.824 9.048 10.2671112 11.780889l7.2684444-3.068c-5.1884444-1.964445-9.204-5.777778-11.7288889-11.151111zM42.1604444 130.115556L36.244 132.617333v4.830223h5.9164444zM134.154222 91.2715556l-5.962666 2.5017777c1.427111 5.0151111 5.286666 8.5106667 12.306666 10.9257777l9.250222-3.905778-1.964444-.496889c-8.418222-2.0973329-12.549333-4.8071107-13.635556-9.0248884h.005778zM165.932 88.244h6.228444c-.288888-4.2177778-2.189777-7.9444444-5.171111-10.8506667L160.94 79.9355556c2.732889 2.0337777 4.518222 4.9053333 4.992 8.3084444z" fill="#9C27B0"/>
    <path d="M113.302222 116.191111l-7.701778 3.247111c-3.634222 8.528-10.6946662 13.635556-20.3377773 13.635556-3.0448889 0-5.7777778-.589334-8.3026667-1.536889l-7.2684444 3.062222c4.3333333 2.646222 9.5275555 4.200445 15.5768888 4.200445 14.6928889 0 24.6248886-8.574223 28.0279996-22.614223l.005778.005778zM131.895111 120.524444h-6.228444c.156 2.120445.745333 4.061778 1.536889 5.887556l5.708444-2.415111c-.524611-1.09687-.868024-2.271499-1.016889-3.478222v.005777zM154.237778 101.92l-4.506667-1.126667-9.238667 3.905778c1.357778.473778 2.825334.901333 4.402667 1.288445l7.453333 1.895111c4.125334 1.016889 7.262667 2.299555 9.591112 3.882666l6.944888-2.958222c-3.044888-2.981333-7.805777-5.188444-14.646666-6.881333V101.92z" fill="#3F51B5"/>
    <path d="M132.912 124.02l-5.708444 2.415111c2.166666 5.009333 6.563555 8.822667 12.503111 10.804445l9.770222-4.125334c-7.967556-.179111-14.196-3.720889-16.564889-9.094222zM172.836444 123.251556c.202223-1.103556.364-2.253334.364-3.455112 0-4.535555-1.357777-8.100444-4.316-10.989333l-6.950666 2.958222c3.339555 2.230223 4.945778 5.101778 4.945778 8.712889 0 2.276445-.751112 4.333334-2.010667 6.136l7.967555-3.362666z" fill="#03A9F4"/>
    <path d="M172.836444 123.251556l-7.967555 3.362666c-2.727111 3.952-8.054222 6.546222-14.733333 6.546222-.231112 0-.433334-.023111-.658667-.046222l-9.770222 4.131111c2.975555.993778 6.274666 1.56 9.88 1.56 12.757333 0 21.510666-6.124444 23.249777-15.553777z" fill="#009688"/>
  </g>
</svg>
