<svg width="222" height="222" viewBox="0 0 222 222" version="1.1" xmlns="http://www.w3.org/2000/svg">
  <path d="M111 .6C50.1075.6.5885 50.1305.5885 111S50.1075 221.4 111 221.4c60.8695 0 110.4-49.5305 110.4-110.4S171.8695.6 111 .6zM205.162 111c0 21.5395-7.314 41.4-19.504 57.27-3.45-2.691-7.1185-9.9705-3.6685-17.5145 3.4845-7.59 4.393-25.162 3.588-32.0045-.759-6.831-4.3125-23.2875-13.961-23.4485-9.637-.138-16.2495-3.3235-21.9765-14.7545-11.8795-23.782 22.2985-28.3475 10.419-41.5035-3.3235-3.703-20.5045 15.203-23.023-9.9935-.161-1.8055 1.5525-4.508 3.864-7.314 37.306 12.535 64.262 47.8055 64.262 89.263zM98.0625 17.7695c-2.254 4.393-8.1995 6.1755-11.8105 9.476-7.866 7.1185-11.247 6.1295-15.479 12.9605-4.2665 6.831-18.0205 16.6635-18.0205 21.6085s6.946 10.764 10.419 9.637c3.473-1.15 12.6385-1.081 18.0205.805 5.3935 1.909 45.011 3.818 32.384 37.306-4.002 10.649-21.5395 8.855-26.2085 26.4845-.7015 2.5875-3.128 13.639-3.2775 17.25-.2875 5.589 3.956 26.657-1.4375 26.657-5.4165 0-19.987-18.8485-19.987-22.264 0-3.4155-3.772-15.387-3.772-25.645 0-10.2465-17.457-10.0855-17.457-23.713 0-12.282 9.4645-18.4 7.337-24.2995-2.0815-5.865-18.7105-6.0605-25.645-6.785 12.3468204-31.9456531 41.0196745-54.7044009 74.934-59.478zM81.376 200.355c5.658-2.99 6.233-6.854 11.362-7.0495 5.865-.2645 10.6375-2.2885 17.25-3.749 5.865-1.2765 16.3645-7.2335 25.599-7.9925 7.797-.6325 23.1725.4025 27.3125 7.9235-24.054615 15.973791-54.124454 19.982254-81.5235 10.8675z" fill="#FFF" fill-rule="nonzero" stroke="none" stroke-width="1"/>
</svg>
